<svg width="303" height="314" viewBox="0 0 303 314" fill="none" xmlns="http://www.w3.org/2000/svg">
<g style="mix-blend-mode:plus-lighter" opacity="0.5">
<path opacity="0.5" d="M84.6645 89.7827C85.5515 89.4959 85.612 88.3364 84.7594 87.9634C84.5731 87.884 84.3732 87.8742 84.1796 87.9347C83.2831 88.2111 83.2321 89.3811 84.0847 89.7541C84.271 89.8334 84.4709 89.8433 84.6645 89.7827Z" fill="white"/>
<path opacity="0.5" d="M143.497 177.787C144.384 177.5 144.444 176.341 143.592 175.968C143.406 175.888 143.206 175.878 143.012 175.939C142.116 176.215 142.064 177.385 142.917 177.758C143.103 177.838 143.303 177.848 143.497 177.787Z" fill="white"/>
<path opacity="0.5" d="M113.918 143.013C114.805 142.727 114.865 141.567 114.013 141.194C113.826 141.115 113.626 141.105 113.433 141.165C112.536 141.442 112.485 142.612 113.338 142.985C113.524 143.064 113.724 143.074 113.918 143.013Z" fill="white"/>
<path opacity="0.5" d="M154.56 159.066C155.447 158.78 155.508 157.62 154.655 157.247C154.469 157.168 154.269 157.158 154.075 157.218C153.179 157.495 153.128 158.665 153.981 159.038C154.167 159.117 154.367 159.127 154.56 159.066Z" fill="white"/>
<path opacity="0.5" d="M130.175 129.307C131.062 129.02 131.123 127.861 130.27 127.488C130.084 127.408 129.884 127.398 129.69 127.459C128.794 127.735 128.743 128.905 129.595 129.278C129.782 129.358 129.981 129.368 130.175 129.307Z" fill="white"/>
<path opacity="0.5" d="M105.25 111.338C106.137 111.051 106.197 109.891 105.345 109.518C105.158 109.439 104.958 109.429 104.765 109.49C103.868 109.766 103.817 110.936 104.67 111.309C104.856 111.388 105.056 111.398 105.25 111.338Z" fill="white"/>
<path opacity="0.5" d="M180.195 202.025C181.082 201.738 181.142 200.579 180.29 200.206C180.103 200.126 179.903 200.116 179.71 200.177C178.813 200.453 178.762 201.623 179.615 201.996C179.801 202.076 180.001 202.086 180.195 202.025Z" fill="white"/>
<path opacity="0.5" d="M77.704 99.7629C78.591 99.4761 78.6515 98.3166 77.7989 97.9436C77.6126 97.8643 77.4127 97.8544 77.2191 97.9149C76.3226 98.1913 76.2716 99.3613 77.1242 99.7343C77.3105 99.8136 77.5104 99.8235 77.704 99.7629Z" fill="white"/>
<path d="M84.9065 120.544C85.7935 120.257 85.854 119.098 85.0014 118.725C84.8151 118.645 84.6152 118.636 84.4216 118.696C83.5251 118.972 83.4741 120.143 84.3267 120.515C84.513 120.595 84.7129 120.605 84.9065 120.544Z" fill="white"/>
<path d="M59.982 102.575C60.869 102.288 60.9294 101.128 60.0769 100.756C59.8906 100.676 59.6906 100.666 59.497 100.727C58.6006 101.003 58.5495 102.173 59.4021 102.546C59.5884 102.626 59.7884 102.635 59.982 102.575Z" fill="white"/>
<path d="M128.57 150.929C129.457 150.643 129.518 149.483 128.665 149.11C128.479 149.031 128.279 149.021 128.085 149.081C127.189 149.358 127.138 150.528 127.99 150.901C128.177 150.98 128.377 150.99 128.57 150.929Z" fill="white"/>
<path d="M63.586 83.8613C64.473 83.5745 64.5335 82.4149 63.6809 82.042C63.4946 81.9626 63.2947 81.9527 63.1011 82.0133C62.2046 82.2896 62.1536 83.4597 63.0062 83.8326C63.1925 83.912 63.3924 83.9219 63.586 83.8613Z" fill="white"/>
<path opacity="0.5" d="M112.06 66.7566C112.947 66.4698 113.007 65.3103 112.155 64.9373C111.969 64.8579 111.769 64.8481 111.575 64.9086C110.679 65.1849 110.627 66.355 111.48 66.728C111.666 66.8073 111.866 66.8172 112.06 66.7566Z" fill="white"/>
<path d="M70.2278 69.2994C71.1148 69.0126 71.1752 67.8531 70.3227 67.4801C70.1364 67.4008 69.9364 67.3909 69.7428 67.4514C68.8464 67.7278 68.7953 68.8978 69.6479 69.2708C69.8342 69.3501 70.0342 69.36 70.2278 69.2994Z" fill="white"/>
<path opacity="0.5" d="M173.924 139.265C174.811 138.978 174.871 137.818 174.019 137.445C173.832 137.366 173.632 137.356 173.439 137.417C172.542 137.693 172.491 138.863 173.344 139.236C173.53 139.315 173.73 139.325 173.924 139.265Z" fill="white"/>
<path opacity="0.5" d="M121.45 109.72C122.337 109.433 122.398 108.274 121.545 107.901C121.359 107.821 121.159 107.811 120.965 107.872C120.069 108.148 120.018 109.318 120.87 109.691C121.057 109.771 121.257 109.78 121.45 109.72Z" fill="white"/>
<path opacity="0.5" d="M96.5261 91.7504C97.4131 91.4636 97.4736 90.3041 96.621 89.9311C96.4347 89.8517 96.2348 89.8419 96.0412 89.9024C95.1447 90.1788 95.0937 91.3488 95.9462 91.7218C96.1325 91.8011 96.3325 91.811 96.5261 91.7504Z" fill="white"/>
<path opacity="0.5" d="M171.472 182.438C172.359 182.152 172.42 180.992 171.567 180.619C171.381 180.54 171.181 180.53 170.987 180.59C170.091 180.867 170.04 182.037 170.893 182.41C171.079 182.489 171.279 182.499 171.472 182.438Z" fill="white"/>
<path opacity="0.5" d="M74.7553 115.231C75.6423 114.944 75.7028 113.784 74.8502 113.411C74.6639 113.332 74.464 113.322 74.2704 113.383C73.3739 113.659 73.3229 114.829 74.1755 115.202C74.3618 115.281 74.5617 115.291 74.7553 115.231Z" fill="white"/>
<path d="M246.708 240.045C247.595 239.758 247.655 238.599 246.802 238.226C246.616 238.147 246.416 238.137 246.223 238.197C245.326 238.474 245.275 239.644 246.128 240.017C246.314 240.096 246.514 240.106 246.708 240.045Z" fill="white"/>
<path d="M78.9058 62.2078C79.6991 61.7183 79.4821 60.5776 78.5653 60.4181C78.3655 60.3853 78.1689 60.4233 77.9953 60.5282C77.1902 61.0097 77.4189 62.1584 78.3357 62.3179C78.5356 62.3507 78.7321 62.3127 78.9058 62.2078Z" fill="white"/>
<path d="M145.584 102.329C146.471 102.042 146.531 100.883 145.679 100.51C145.493 100.43 145.293 100.421 145.099 100.481C144.203 100.757 144.152 101.927 145.004 102.3C145.19 102.38 145.39 102.39 145.584 102.329Z" fill="white"/>
<path d="M93.1127 72.7854C93.9997 72.4986 94.0602 71.339 93.2076 70.9661C93.0213 70.8867 92.8214 70.8768 92.6278 70.9374C91.7313 71.2137 91.6803 72.3838 92.5329 72.7567C92.7192 72.8361 92.9191 72.8459 93.1127 72.7854Z" fill="white"/>
<path d="M160.521 188.701C161.315 188.211 161.098 187.07 160.181 186.911C159.981 186.878 159.785 186.916 159.611 187.021C158.806 187.502 159.035 188.651 159.951 188.811C160.151 188.843 160.348 188.805 160.521 188.701Z" fill="white"/>
<path d="M189.221 157.913C190.108 157.626 190.168 156.467 189.316 156.094C189.129 156.014 188.93 156.004 188.736 156.065C187.839 156.341 187.788 157.511 188.641 157.884C188.827 157.964 189.027 157.974 189.221 157.913Z" fill="white"/>
<path d="M137.195 132.383C138.082 132.097 138.143 130.937 137.29 130.564C137.104 130.485 136.904 130.475 136.711 130.535C135.814 130.812 135.763 131.982 136.616 132.355C136.802 132.434 137.002 132.444 137.195 132.383Z" fill="white"/>
<path d="M200.503 209.373C201.39 209.086 201.451 207.927 200.598 207.554C200.412 207.475 200.212 207.465 200.018 207.525C199.122 207.802 199.071 208.972 199.923 209.345C200.11 209.424 200.309 209.434 200.503 209.373Z" fill="white"/>
<path d="M238.8 211.208C239.687 210.921 239.748 209.761 238.895 209.388C238.709 209.309 238.509 209.299 238.315 209.36C237.419 209.636 237.368 210.806 238.221 211.179C238.407 211.258 238.607 211.268 238.8 211.208Z" fill="white"/>
<path d="M139.49 142.464C140.377 142.178 140.438 141.018 139.585 140.645C139.399 140.566 139.199 140.556 139.005 140.616C138.109 140.893 138.058 142.063 138.91 142.436C139.097 142.515 139.297 142.525 139.49 142.464Z" fill="white"/>
<path d="M216.122 222.178C217.009 221.891 217.069 220.732 216.217 220.359C216.031 220.279 215.831 220.269 215.637 220.33C214.741 220.606 214.69 221.776 215.542 222.149C215.728 222.229 215.928 222.239 216.122 222.178Z" fill="white"/>
<path d="M87.019 112.92C87.906 112.633 87.9665 111.474 87.1139 111.101C86.9276 111.022 86.7277 111.012 86.5341 111.072C85.6376 111.349 85.5866 112.519 86.4391 112.892C86.6255 112.971 86.8254 112.981 87.019 112.92Z" fill="white"/>
<path d="M62.0917 94.9516C62.9787 94.6648 63.0392 93.5053 62.1866 93.1323C62.0003 93.053 61.8004 93.0431 61.6068 93.1036C60.7103 93.38 60.6593 94.55 61.5119 94.923C61.6982 95.0024 61.8981 95.0122 62.0917 94.9516Z" fill="white"/>
<path d="M134.667 164.579C135.554 164.292 135.614 163.133 134.762 162.76C134.576 162.68 134.376 162.671 134.182 162.731C133.286 163.007 133.234 164.177 134.087 164.55C134.273 164.63 134.473 164.64 134.667 164.579Z" fill="white"/>
<path d="M211.931 194.924C212.818 194.637 212.878 193.478 212.026 193.105C211.84 193.025 211.64 193.016 211.446 193.076C210.55 193.352 210.499 194.523 211.351 194.895C211.537 194.975 211.737 194.985 211.931 194.924Z" fill="white"/>
<path d="M156.779 133.544C157.666 133.258 157.727 132.098 156.874 131.725C156.688 131.646 156.488 131.636 156.294 131.696C155.398 131.973 155.347 133.143 156.2 133.516C156.386 133.595 156.586 133.605 156.779 133.544Z" fill="white"/>
<path d="M107.569 104.451C108.456 104.164 108.517 103.004 107.664 102.632C107.478 102.552 107.278 102.542 107.084 102.603C106.188 102.879 106.137 104.049 106.989 104.422C107.175 104.502 107.375 104.511 107.569 104.451Z" fill="white"/>
<path opacity="0.5" d="M108.188 152.608C109.075 152.321 109.135 151.162 108.283 150.789C108.097 150.709 107.897 150.699 107.703 150.76C106.807 151.036 106.756 152.206 107.608 152.579C107.794 152.659 107.994 152.669 108.188 152.608Z" fill="white"/>
<path opacity="0.5" d="M171.724 163.433C172.611 163.147 172.672 161.987 171.819 161.614C171.633 161.535 171.433 161.525 171.239 161.585C170.343 161.862 170.292 163.032 171.145 163.405C171.331 163.484 171.531 163.494 171.724 163.433Z" fill="white"/>
<path opacity="0.5" d="M107.91 130.637C108.797 130.35 108.858 129.191 108.005 128.818C107.819 128.738 107.619 128.728 107.425 128.789C106.529 129.065 106.478 130.235 107.33 130.608C107.517 130.688 107.717 130.697 107.91 130.637Z" fill="white"/>
<path d="M134.75 109.237C135.637 108.95 135.698 107.791 134.845 107.418C134.659 107.338 134.459 107.328 134.265 107.389C133.369 107.665 133.318 108.835 134.17 109.208C134.356 109.288 134.556 109.298 134.75 109.237Z" fill="white"/>
<path d="M200.339 179.884C201.226 179.597 201.287 178.437 200.434 178.065C200.248 177.985 200.048 177.975 199.854 178.036C198.958 178.312 198.907 179.482 199.759 179.855C199.946 179.935 200.145 179.944 200.339 179.884Z" fill="white"/>
<path d="M82.279 79.693C83.166 79.4062 83.2265 78.2466 82.3739 77.8737C82.1876 77.7943 81.9877 77.7844 81.7941 77.845C80.8976 78.1213 80.8466 79.2914 81.6992 79.6643C81.8855 79.7437 82.0854 79.7536 82.279 79.693Z" fill="white"/>
<path d="M51.7909 68.8439C52.6779 68.557 52.7384 67.3975 51.8858 67.0245C51.6995 66.9452 51.4996 66.9353 51.306 66.9959C50.4095 67.2722 50.3585 68.4422 51.2111 68.8152C51.3974 68.8946 51.5973 68.9044 51.7909 68.8439Z" fill="white"/>
<path opacity="0.5" d="M152.869 168.4C153.756 168.113 153.817 166.953 152.964 166.58C152.778 166.501 152.578 166.491 152.384 166.552C151.488 166.828 151.437 167.998 152.289 168.371C152.476 168.45 152.675 168.46 152.869 168.4Z" fill="white"/>
<path opacity="0.5" d="M100.398 138.856C101.285 138.57 101.346 137.41 100.493 137.037C100.307 136.958 100.107 136.948 99.9134 137.008C99.0169 137.285 98.9659 138.455 99.8185 138.828C100.005 138.907 100.205 138.917 100.398 138.856Z" fill="white"/>
<path opacity="0.5" d="M163.935 149.681C164.822 149.394 164.882 148.235 164.03 147.862C163.843 147.782 163.643 147.772 163.45 147.833C162.553 148.109 162.502 149.279 163.355 149.652C163.541 149.732 163.741 149.741 163.935 149.681Z" fill="white"/>
<path opacity="0.5" d="M124.834 98.6906C125.721 98.4038 125.782 97.2443 124.929 96.8713C124.743 96.792 124.543 96.7821 124.35 96.8426C123.453 97.119 123.402 98.289 124.255 98.662C124.441 98.7413 124.641 98.7512 124.834 98.6906Z" fill="white"/>
<path d="M222.414 239.35C223.301 239.064 223.361 237.904 222.509 237.531C222.323 237.452 222.123 237.442 221.929 237.502C221.033 237.779 220.981 238.949 221.834 239.322C222.02 239.401 222.22 239.411 222.414 239.35Z" fill="white"/>
<path d="M152.958 115.889C153.845 115.602 153.905 114.443 153.053 114.07C152.866 113.991 152.666 113.981 152.473 114.041C151.576 114.318 151.525 115.488 152.378 115.861C152.564 115.94 152.764 115.95 152.958 115.889Z" fill="white"/>
<path d="M110.315 80.5204C111.202 80.2336 111.262 79.0741 110.41 78.7011C110.223 78.6218 110.024 78.6119 109.83 78.6724C108.933 78.9488 108.882 80.1188 109.735 80.4918C109.921 80.5711 110.121 80.581 110.315 80.5204Z" fill="white"/>
</g>
</svg>
