<svg width="303" height="314" viewBox="0 0 303 314" fill="none" xmlns="http://www.w3.org/2000/svg">
<g style="mix-blend-mode:plus-lighter" opacity="0.5">
<path opacity="0.5" d="M218.336 89.7827C217.449 89.4959 217.388 88.3364 218.241 87.9634C218.427 87.884 218.627 87.8742 218.821 87.9347C219.717 88.2111 219.768 89.3811 218.916 89.7541C218.729 89.8334 218.529 89.8433 218.336 89.7827Z" fill="white"/>
<path opacity="0.5" d="M159.503 177.787C158.616 177.5 158.555 176.341 159.408 175.968C159.594 175.888 159.794 175.878 159.988 175.939C160.884 176.215 160.935 177.385 160.083 177.758C159.896 177.838 159.696 177.848 159.503 177.787Z" fill="white"/>
<path opacity="0.5" d="M189.082 143.013C188.195 142.727 188.135 141.567 188.987 141.194C189.174 141.115 189.374 141.105 189.567 141.165C190.464 141.442 190.515 142.612 189.662 142.985C189.476 143.064 189.276 143.074 189.082 143.013Z" fill="white"/>
<path opacity="0.5" d="M148.439 159.066C147.552 158.78 147.492 157.62 148.344 157.247C148.531 157.168 148.731 157.158 148.924 157.218C149.821 157.495 149.872 158.665 149.019 159.038C148.833 159.117 148.633 159.127 148.439 159.066Z" fill="white"/>
<path opacity="0.5" d="M172.825 129.307C171.938 129.02 171.877 127.861 172.73 127.488C172.916 127.408 173.116 127.398 173.31 127.459C174.206 127.735 174.257 128.905 173.405 129.278C173.218 129.358 173.019 129.368 172.825 129.307Z" fill="white"/>
<path opacity="0.5" d="M197.75 111.338C196.863 111.051 196.803 109.891 197.655 109.518C197.842 109.439 198.042 109.429 198.235 109.49C199.132 109.766 199.183 110.936 198.33 111.309C198.144 111.388 197.944 111.398 197.75 111.338Z" fill="white"/>
<path opacity="0.5" d="M122.805 202.025C121.918 201.738 121.858 200.579 122.71 200.206C122.897 200.126 123.097 200.116 123.29 200.177C124.187 200.453 124.238 201.623 123.385 201.996C123.199 202.076 122.999 202.086 122.805 202.025Z" fill="white"/>
<path opacity="0.5" d="M225.296 99.7629C224.409 99.4761 224.348 98.3166 225.201 97.9436C225.387 97.8643 225.587 97.8544 225.781 97.9149C226.677 98.1913 226.728 99.3613 225.876 99.7343C225.69 99.8136 225.49 99.8235 225.296 99.7629Z" fill="white"/>
<path d="M218.094 120.544C217.207 120.257 217.146 119.098 217.999 118.725C218.185 118.645 218.385 118.636 218.579 118.696C219.475 118.972 219.526 120.143 218.674 120.515C218.487 120.595 218.287 120.605 218.094 120.544Z" fill="white"/>
<path d="M243.018 102.575C242.131 102.288 242.071 101.128 242.923 100.756C243.109 100.676 243.309 100.666 243.503 100.727C244.399 101.003 244.45 102.173 243.598 102.546C243.412 102.626 243.212 102.635 243.018 102.575Z" fill="white"/>
<path d="M174.43 150.929C173.543 150.643 173.482 149.483 174.335 149.11C174.521 149.031 174.721 149.021 174.915 149.081C175.811 149.358 175.862 150.528 175.01 150.901C174.824 150.98 174.624 150.99 174.43 150.929Z" fill="white"/>
<path d="M239.414 83.8613C238.527 83.5745 238.466 82.4149 239.319 82.042C239.505 81.9626 239.705 81.9527 239.899 82.0133C240.795 82.2896 240.846 83.4597 239.994 83.8326C239.808 83.912 239.608 83.9219 239.414 83.8613Z" fill="white"/>
<path opacity="0.5" d="M190.94 66.7566C190.053 66.4698 189.993 65.3103 190.845 64.9373C191.031 64.8579 191.231 64.8481 191.425 64.9086C192.321 65.1849 192.373 66.355 191.52 66.728C191.334 66.8073 191.134 66.8172 190.94 66.7566Z" fill="white"/>
<path d="M232.772 69.2994C231.885 69.0126 231.825 67.8531 232.677 67.4801C232.863 67.4008 233.063 67.3909 233.257 67.4514C234.153 67.7278 234.204 68.8978 233.352 69.2708C233.166 69.3501 232.966 69.36 232.772 69.2994Z" fill="white"/>
<path opacity="0.5" d="M129.076 139.265C128.189 138.978 128.129 137.818 128.981 137.445C129.168 137.366 129.367 137.356 129.561 137.417C130.458 137.693 130.509 138.863 129.656 139.236C129.47 139.315 129.27 139.325 129.076 139.265Z" fill="white"/>
<path opacity="0.5" d="M181.55 109.72C180.663 109.433 180.602 108.274 181.455 107.901C181.641 107.821 181.841 107.811 182.035 107.872C182.931 108.148 182.982 109.318 182.129 109.691C181.943 109.771 181.743 109.78 181.55 109.72Z" fill="white"/>
<path opacity="0.5" d="M206.474 91.7504C205.587 91.4636 205.526 90.3041 206.379 89.9311C206.565 89.8517 206.765 89.8419 206.959 89.9024C207.855 90.1788 207.906 91.3488 207.054 91.7218C206.867 91.8011 206.668 91.811 206.474 91.7504Z" fill="white"/>
<path opacity="0.5" d="M131.528 182.438C130.641 182.152 130.58 180.992 131.433 180.619C131.619 180.54 131.819 180.53 132.013 180.59C132.909 180.867 132.96 182.037 132.108 182.41C131.921 182.489 131.721 182.499 131.528 182.438Z" fill="white"/>
<path opacity="0.5" d="M228.245 115.231C227.358 114.944 227.297 113.784 228.15 113.411C228.336 113.332 228.536 113.322 228.73 113.383C229.626 113.659 229.677 114.829 228.825 115.202C228.638 115.281 228.439 115.291 228.245 115.231Z" fill="white"/>
<path d="M56.2924 240.045C55.4054 239.758 55.3449 238.599 56.1975 238.226C56.3838 238.147 56.5838 238.137 56.7774 238.197C57.6738 238.474 57.7249 239.644 56.8723 240.017C56.686 240.096 56.486 240.106 56.2924 240.045Z" fill="white"/>
<path d="M224.094 62.2078C223.301 61.7183 223.518 60.5776 224.434 60.4181C224.634 60.3853 224.831 60.4233 225.004 60.5282C225.81 61.0097 225.581 62.1584 224.664 62.3179C224.464 62.3507 224.268 62.3127 224.094 62.2078Z" fill="white"/>
<path d="M157.416 102.329C156.529 102.042 156.469 100.883 157.321 100.51C157.508 100.43 157.708 100.421 157.901 100.481C158.798 100.757 158.849 101.927 157.996 102.3C157.81 102.38 157.61 102.39 157.416 102.329Z" fill="white"/>
<path d="M209.887 72.7854C209 72.4986 208.94 71.339 209.792 70.9661C209.979 70.8867 210.179 70.8768 210.372 70.9374C211.269 71.2137 211.32 72.3838 210.467 72.7567C210.281 72.8361 210.081 72.8459 209.887 72.7854Z" fill="white"/>
<path d="M142.479 188.701C141.685 188.211 141.902 187.07 142.819 186.911C143.019 186.878 143.215 186.916 143.389 187.021C144.194 187.502 143.965 188.651 143.049 188.811C142.849 188.843 142.652 188.805 142.479 188.701Z" fill="white"/>
<path d="M113.779 157.913C112.892 157.626 112.831 156.467 113.684 156.094C113.87 156.014 114.07 156.004 114.264 156.065C115.16 156.341 115.211 157.511 114.359 157.884C114.172 157.964 113.973 157.974 113.779 157.913Z" fill="white"/>
<path d="M165.805 132.383C164.918 132.097 164.857 130.937 165.71 130.564C165.896 130.485 166.096 130.475 166.289 130.535C167.186 130.812 167.237 131.982 166.384 132.355C166.198 132.434 165.998 132.444 165.805 132.383Z" fill="white"/>
<path d="M102.497 209.373C101.61 209.086 101.549 207.927 102.402 207.554C102.588 207.475 102.788 207.465 102.982 207.525C103.878 207.802 103.929 208.972 103.077 209.345C102.89 209.424 102.691 209.434 102.497 209.373Z" fill="white"/>
<path d="M64.1997 211.208C63.3126 210.921 63.2522 209.761 64.1047 209.388C64.2911 209.309 64.491 209.299 64.6846 209.36C65.5811 209.636 65.6321 210.806 64.7795 211.179C64.5932 211.258 64.3933 211.268 64.1997 211.208Z" fill="white"/>
<path d="M163.51 142.464C162.623 142.178 162.562 141.018 163.415 140.645C163.601 140.566 163.801 140.556 163.995 140.616C164.891 140.893 164.942 142.063 164.09 142.436C163.903 142.515 163.703 142.525 163.51 142.464Z" fill="white"/>
<path d="M86.878 222.178C85.991 221.891 85.9306 220.732 86.7831 220.359C86.9694 220.279 87.1694 220.269 87.363 220.33C88.2594 220.606 88.3105 221.776 87.4579 222.149C87.2716 222.229 87.0716 222.239 86.878 222.178Z" fill="white"/>
<path d="M215.981 112.92C215.094 112.633 215.033 111.474 215.886 111.101C216.072 111.022 216.272 111.012 216.466 111.072C217.362 111.349 217.413 112.519 216.561 112.892C216.374 112.971 216.174 112.981 215.981 112.92Z" fill="white"/>
<path d="M240.908 94.9516C240.021 94.6648 239.961 93.5053 240.813 93.1323C240.999 93.053 241.199 93.0431 241.393 93.1036C242.289 93.38 242.34 94.55 241.488 94.923C241.302 95.0024 241.102 95.0122 240.908 94.9516Z" fill="white"/>
<path d="M168.333 164.579C167.446 164.292 167.386 163.133 168.238 162.76C168.424 162.68 168.624 162.671 168.818 162.731C169.714 163.007 169.766 164.177 168.913 164.55C168.727 164.63 168.527 164.64 168.333 164.579Z" fill="white"/>
<path d="M91.0688 194.924C90.1818 194.637 90.1213 193.478 90.9739 193.105C91.1602 193.025 91.3601 193.016 91.5537 193.076C92.4502 193.352 92.5012 194.523 91.6486 194.895C91.4623 194.975 91.2624 194.985 91.0688 194.924Z" fill="white"/>
<path d="M146.221 133.544C145.334 133.258 145.273 132.098 146.126 131.725C146.312 131.646 146.512 131.636 146.706 131.696C147.602 131.973 147.653 133.143 146.801 133.516C146.614 133.595 146.414 133.605 146.221 133.544Z" fill="white"/>
<path d="M195.431 104.451C194.544 104.164 194.483 103.004 195.336 102.632C195.522 102.552 195.722 102.542 195.916 102.603C196.812 102.879 196.863 104.049 196.011 104.422C195.825 104.502 195.625 104.511 195.431 104.451Z" fill="white"/>
<path opacity="0.5" d="M194.812 152.608C193.925 152.321 193.865 151.162 194.717 150.789C194.903 150.709 195.103 150.699 195.297 150.76C196.193 151.036 196.244 152.206 195.392 152.579C195.206 152.659 195.006 152.669 194.812 152.608Z" fill="white"/>
<path opacity="0.5" d="M131.276 163.433C130.389 163.147 130.328 161.987 131.181 161.614C131.367 161.535 131.567 161.525 131.761 161.585C132.657 161.862 132.708 163.032 131.855 163.405C131.669 163.484 131.469 163.494 131.276 163.433Z" fill="white"/>
<path opacity="0.5" d="M195.09 130.637C194.203 130.35 194.142 129.191 194.995 128.818C195.181 128.738 195.381 128.728 195.575 128.789C196.471 129.065 196.522 130.235 195.67 130.608C195.483 130.688 195.283 130.697 195.09 130.637Z" fill="white"/>
<path d="M168.25 109.237C167.363 108.95 167.302 107.791 168.155 107.418C168.341 107.338 168.541 107.328 168.735 107.389C169.631 107.665 169.682 108.835 168.83 109.208C168.644 109.288 168.444 109.298 168.25 109.237Z" fill="white"/>
<path d="M102.661 179.884C101.774 179.597 101.713 178.437 102.566 178.065C102.752 177.985 102.952 177.975 103.146 178.036C104.042 178.312 104.093 179.482 103.241 179.855C103.054 179.935 102.854 179.944 102.661 179.884Z" fill="white"/>
<path d="M220.721 79.693C219.834 79.4062 219.774 78.2466 220.626 77.8737C220.812 77.7943 221.012 77.7844 221.206 77.845C222.102 78.1213 222.153 79.2914 221.301 79.6643C221.115 79.7437 220.915 79.7536 220.721 79.693Z" fill="white"/>
<path d="M251.209 68.8439C250.322 68.557 250.262 67.3975 251.114 67.0245C251.301 66.9452 251.501 66.9353 251.694 66.9959C252.591 67.2722 252.642 68.4422 251.789 68.8152C251.603 68.8946 251.403 68.9044 251.209 68.8439Z" fill="white"/>
<path opacity="0.5" d="M150.131 168.4C149.244 168.113 149.183 166.953 150.036 166.58C150.222 166.501 150.422 166.491 150.616 166.552C151.512 166.828 151.563 167.998 150.711 168.371C150.524 168.45 150.325 168.46 150.131 168.4Z" fill="white"/>
<path opacity="0.5" d="M202.601 138.856C201.714 138.57 201.654 137.41 202.507 137.037C202.693 136.958 202.893 136.948 203.086 137.008C203.983 137.285 204.034 138.455 203.181 138.828C202.995 138.907 202.795 138.917 202.601 138.856Z" fill="white"/>
<path opacity="0.5" d="M139.066 149.681C138.179 149.394 138.118 148.235 138.971 147.862C139.157 147.782 139.357 147.772 139.55 147.833C140.447 148.109 140.498 149.279 139.645 149.652C139.459 149.732 139.259 149.741 139.066 149.681Z" fill="white"/>
<path opacity="0.5" d="M178.166 98.6906C177.279 98.4038 177.218 97.2443 178.071 96.8713C178.257 96.792 178.457 96.7821 178.65 96.8426C179.547 97.119 179.598 98.289 178.745 98.662C178.559 98.7413 178.359 98.7512 178.166 98.6906Z" fill="white"/>
<path d="M80.5861 239.35C79.6991 239.064 79.6386 237.904 80.4912 237.531C80.6775 237.452 80.8774 237.442 81.071 237.502C81.9675 237.779 82.0185 238.949 81.1659 239.322C80.9796 239.401 80.7797 239.411 80.5861 239.35Z" fill="white"/>
<path d="M150.042 115.889C149.155 115.602 149.094 114.443 149.947 114.07C150.133 113.991 150.333 113.981 150.527 114.041C151.423 114.318 151.474 115.488 150.622 115.861C150.435 115.94 150.236 115.95 150.042 115.889Z" fill="white"/>
<path d="M192.685 80.5204C191.798 80.2336 191.738 79.0741 192.59 78.7011C192.777 78.6218 192.977 78.6119 193.17 78.6724C194.067 78.9488 194.118 80.1188 193.265 80.4918C193.079 80.5711 192.879 80.581 192.685 80.5204Z" fill="white"/>
</g>
</svg>
