<svg width="5" height="6" viewBox="0 0 5 6" fill="none" xmlns="http://www.w3.org/2000/svg">
<path d="M2.16051 5.52535C2.16051 5.71285 2.3125 5.86485 2.5 5.86485C2.6875 5.86485 2.83949 5.71285 2.83949 5.52535H2.16051ZM2.74006 0.0994357C2.60748 -0.0331451 2.39252 -0.0331451 2.25994 0.0994357L0.0994132 2.25996C-0.0331676 2.39254 -0.0331676 2.6075 0.0994132 2.74008C0.231994 2.87266 0.44695 2.87266 0.57953 2.74008L2.5 0.819612L4.42047 2.74008C4.55305 2.87266 4.76801 2.87266 4.90059 2.74008C5.03317 2.6075 5.03317 2.39254 4.90059 2.25996L2.74006 0.0994357ZM2.5 5.52535H2.83949L2.83949 0.339494H2.5H2.16051V5.52535H2.5Z" fill="#007AFF"/>
</svg>
