<svg id="Layer_2" data-name="Layer 2" xmlns="http://www.w3.org/2000/svg" xmlns:xlink="http://www.w3.org/1999/xlink" viewBox="0 0 311.58 258.09"><defs><linearGradient id="linear-gradient" x1="171.23" y1="342.78" x2="343.04" y2="342.78" gradientUnits="userSpaceOnUse"><stop offset="0.5" stop-color="#fff"/><stop offset="1" stop-color="#f0f0f0"/></linearGradient><linearGradient id="linear-gradient-2" x1="304.43" y1="274.11" x2="304.43" y2="274.11" gradientUnits="userSpaceOnUse"><stop offset="0.5" stop-color="#fff"/><stop offset="1" stop-color="#999"/></linearGradient><linearGradient id="linear-gradient-3" x1="133.15" y1="49.2" x2="249.14" y2="49.2" gradientUnits="userSpaceOnUse"><stop offset="0" stop-color="#fff"/><stop offset="1" stop-color="#b1b1b1"/></linearGradient><linearGradient id="linear-gradient-4" x1="160.83" y1="61.92" x2="310.31" y2="61.92" xlink:href="#linear-gradient-3"/><linearGradient id="linear-gradient-5" x1="160.83" y1="196.21" x2="310.31" y2="196.21" xlink:href="#linear-gradient-3"/><linearGradient id="linear-gradient-6" x1="133.7" y1="209.04" x2="249.14" y2="209.04" xlink:href="#linear-gradient-3"/></defs><path d="M171.23,253.57c0,1.3,98,0,98,0L343,325,230.87,432H192.78L302.87,325H248.09Z" transform="translate(-170.73 -195.96)" style="stroke:#ccc;stroke-miterlimit:10;fill:url(#linear-gradient)"/><path d="M304.43,274.11" transform="translate(-170.73 -195.96)" style="stroke:#ccc;stroke-miterlimit:10;fill:url(#linear-gradient-2)"/><polygon points="133.7 78.15 214.7 2.44 249.13 2.44 150.33 95.96 133.7 79.13 133.15 78.57 133.7 78.15" style="stroke:#ccc;stroke-miterlimit:10;fill:url(#linear-gradient-3)"/><polygon points="160.83 104.83 178.57 123.35 310.31 0.5 271.96 0.5 160.83 104.83" style="stroke:#ccc;stroke-miterlimit:10;fill:url(#linear-gradient-4)"/><polygon points="160.83 151.26 178.83 134.83 310.31 257.59 271.18 257.59 160.83 151.26" style="stroke:#ccc;stroke-miterlimit:10;fill:url(#linear-gradient-5)"/><polygon points="149.87 162.48 133.7 181.52 214.57 255.61 249.13 255.61 149.87 162.48" style="stroke:#ccc;stroke-miterlimit:10;fill:url(#linear-gradient-6)"/></svg>