<svg width="1215" height="173" viewBox="0 0 1215 173" fill="none" xmlns="http://www.w3.org/2000/svg">
<g style="mix-blend-mode:plus-lighter" opacity="0.3">
<path fill-rule="evenodd" clip-rule="evenodd" d="M604.762 9.72033L708.825 28.2873L781.623 46.843L870.819 72.7384L870.821 72.739L980.258 103.933L980.262 103.934L1089.69 136.307L1089.7 136.309L1215 171.317L1214.89 172.148L0.124905 172.148L0 171.32L113.279 136.307L228.736 103.932L228.746 103.93L350.766 72.7361L350.769 72.7354L449.256 46.8432L449.26 46.8421L517.12 28.2897L604.762 9.72033ZM449.423 47.6741L354.146 72.7222L436.583 72.7222L503.428 47.6741L449.423 47.6741ZM505.839 47.6741L438.994 72.7222L495.854 72.7222L539.116 47.6741H505.839ZM540.577 46.8282H508.096L555.343 29.1239L571.156 29.1239L540.577 46.8282ZM540.805 47.6741L497.542 72.7222H555.282L574.878 47.6741L540.805 47.6741ZM575.54 46.8282L542.266 46.8282L572.844 29.1239H589.39L575.54 46.8282ZM575.952 47.6741L556.356 72.7222H598.305L600.723 47.6741H575.952ZM600.804 46.8282H576.614L590.464 29.1239H602.513L600.804 46.8282ZM601.573 47.6741L599.155 72.7222H641.15L626.39 47.6741H601.573ZM625.891 46.8282H601.654L603.363 29.1239L615.459 29.1239L625.891 46.8282ZM627.372 47.6741L642.132 72.7222H699.777L661.435 47.6741L627.372 47.6741ZM660.14 46.8282L626.873 46.8282L616.44 29.1239H633.039L660.14 46.8282ZM662.981 47.6741L701.324 72.7222L758.543 72.7222L696.533 47.6741H662.981ZM694.439 46.8282H661.686L634.585 29.1239H650.609L694.439 46.8282ZM698.791 47.6741L760.801 72.7222L867.729 72.7222L781.451 47.6741L698.791 47.6741ZM778.14 46.8282L696.697 46.8282L652.868 29.1239L708.683 29.1239L778.14 46.8282ZM703.957 28.278L650.774 28.278L608.697 11.2817L703.957 28.278ZM600.165 12.3281L557.6 28.278L572.617 28.278L600.165 12.3281ZM574.305 28.278H590.052L603.089 11.613L574.305 28.278ZM604.209 11.5539L591.126 28.278H602.595L604.209 11.5539ZM603.445 28.278L614.96 28.278L605.065 11.4867L603.445 28.278ZM606.052 11.4941L615.942 28.278H631.744L606.052 11.4941ZM633.29 28.278H648.515L608.625 12.1649L633.29 28.278ZM555.19 28.278L599.341 11.7338L521.256 28.278L555.19 28.278ZM517.276 29.1239L452.519 46.8282L505.685 46.8282L552.932 29.1239L517.276 29.1239ZM870.644 73.5682L762.895 73.5682L838.027 103.916L977.115 103.916L870.644 73.5682ZM980.081 104.762L840.121 104.762L918.175 136.292H1086.66L980.081 104.762ZM1089.52 137.137H920.269L1004.85 171.302L1211.8 171.302L1089.52 137.137ZM1002.59 171.302L918.011 137.137H799.928L852.225 171.302H1002.59ZM850.679 171.302L798.382 137.137L680.09 137.137L700.222 171.302L850.679 171.302ZM699.24 171.302L679.108 137.137H592.938L589.64 171.302H699.24ZM588.791 171.302L592.088 137.137L505.964 137.137L479.237 171.302L588.791 171.302ZM478.163 171.302L504.89 137.137H386.285L327.278 171.302H478.163ZM325.589 171.302L384.597 137.137H267.091L175.918 171.302H325.589ZM173.507 171.302L264.68 137.137H113.457L2.92564 171.302L173.507 171.302ZM116.468 136.292L228.909 104.762L351.078 104.762L266.937 136.292H116.468ZM269.348 136.292H386.058L440.514 104.762L353.489 104.762L269.348 136.292ZM355.747 103.916L441.976 103.916L494.393 73.5682L436.736 73.5682L355.747 103.916ZM434.325 73.5682H350.927L232.213 103.916L353.336 103.916L434.325 73.5682ZM496.081 73.5682L443.664 103.916H530.879L554.621 73.5682L496.081 73.5682ZM555.695 73.5682L531.953 103.916L595.294 103.916L598.224 73.5682H555.695ZM599.073 73.5682L596.144 103.916H659.532L641.648 73.5682H599.073ZM642.63 73.5682L660.514 103.916H747.528L701.072 73.5682H642.63ZM702.619 73.5682L749.075 103.916L835.768 103.916L760.637 73.5682H702.619ZM837.862 104.762L750.37 104.762L798.633 136.292H915.917L837.862 104.762ZM797.087 136.292L748.823 104.762H661.012L679.592 136.292H797.087ZM678.61 136.292L660.03 104.762H596.063L593.019 136.292H678.61ZM592.17 136.292L595.213 104.762L531.291 104.762L506.626 136.292L592.17 136.292ZM505.552 136.292L530.217 104.762H442.203L387.746 136.292L505.552 136.292Z" fill="url(#paint0_linear_217_19)"/>
</g>
<defs>
<linearGradient id="paint0_linear_217_19" x1="608.143" y1="-35.1062" x2="607.862" y2="171.725" gradientUnits="userSpaceOnUse">
<stop offset="0.255" stop-color="#5C84FE" stop-opacity="0.18"/>
<stop offset="1" stop-color="#007AFF"/>
</linearGradient>
</defs>
</svg>
