<svg width="397" height="420" viewBox="0 0 397 420" fill="none" xmlns="http://www.w3.org/2000/svg">
<g style="mix-blend-mode:hard-light" opacity="0.5">
<g style="mix-blend-mode:plus-lighter" opacity="0.8" filter="url(#filter0_f_228_230)">
<path d="M-100.868 -108.799L-113.19 -99.9444L67.5501 85.4927L194.236 209.146L79.872 76.6379L-100.868 -108.799Z" fill="white"/>
</g>
<g style="mix-blend-mode:plus-lighter" opacity="0.8" filter="url(#filter1_f_228_230)">
<path d="M-81.4683 -122.27L-93.7902 -113.415L86.95 72.022L213.636 195.675L99.2719 63.1672L-81.4683 -122.27Z" fill="white"/>
</g>
<g style="mix-blend-mode:plus-lighter" opacity="0.8" filter="url(#filter2_f_228_230)">
<path d="M-52.8916 -142.955L-65.2136 -134.1L115.527 51.3369L242.212 174.99L127.849 42.4821L-52.8916 -142.955Z" fill="white"/>
</g>
<g style="mix-blend-mode:plus-lighter" opacity="0.8" filter="url(#filter3_f_228_230)">
<path d="M-161.079 -121.489L-173.401 -112.634L7.33913 72.8027L134.025 196.456L19.6611 63.9479L-161.079 -121.489Z" fill="white"/>
</g>
<g style="mix-blend-mode:plus-lighter" opacity="0.2" filter="url(#filter4_f_228_230)">
<path d="M-114.026 -111.894L-126.348 -103.039L54.3923 82.3979L181.078 206.051L66.7143 73.5432L-114.026 -111.894Z" fill="white"/>
<path d="M-114.026 -111.894L-126.348 -103.039L54.3923 82.3979L181.078 206.051L66.7143 73.5432L-114.026 -111.894Z" fill="white"/>
</g>
<g style="mix-blend-mode:plus-lighter" opacity="0.2" filter="url(#filter5_f_228_230)">
<path d="M-114.026 -111.894L-126.348 -103.039L54.3923 82.3979L181.078 206.051L66.7143 73.5432L-114.026 -111.894Z" fill="white"/>
<path d="M-114.026 -111.894L-126.348 -103.039L54.3923 82.3979L181.078 206.051L66.7143 73.5432L-114.026 -111.894Z" fill="white"/>
</g>
<g style="mix-blend-mode:plus-lighter" opacity="0.2" filter="url(#filter6_f_228_230)">
<path d="M-21.3208 -52.9862L-33.6428 -44.1314L147.097 141.306L273.783 264.959L159.419 132.451L-21.3208 -52.9862Z" fill="white"/>
<path d="M-21.3208 -52.9862L-33.6428 -44.1314L147.097 141.306L273.783 264.959L159.419 132.451L-21.3208 -52.9862Z" fill="white"/>
</g>
<g style="mix-blend-mode:plus-lighter" opacity="0.2" filter="url(#filter7_f_228_230)">
<path d="M-21.3208 -52.9862L-33.6428 -44.1314L147.097 141.306L273.783 264.959L159.419 132.451L-21.3208 -52.9862Z" fill="white"/>
<path d="M-21.3208 -52.9862L-33.6428 -44.1314L147.097 141.306L273.783 264.959L159.419 132.451L-21.3208 -52.9862Z" fill="white"/>
</g>
</g>
<g opacity="0.5">
<g opacity="0.8" filter="url(#filter8_f_228_230)">
<path d="M-19.728 -18.7993L-32.05 -9.94454L148.69 175.493L275.376 299.146L161.012 166.638L-19.728 -18.7993Z" fill="url(#paint0_linear_228_230)"/>
</g>
<g opacity="0.8" filter="url(#filter9_f_228_230)">
<path d="M-0.328125 -32.27L-12.6501 -23.4152L168.09 162.022L294.776 285.675L180.412 153.167L-0.328125 -32.27Z" fill="url(#paint1_linear_228_230)"/>
</g>
<g opacity="0.8" filter="url(#filter10_f_228_230)">
<path d="M28.2485 -52.9551L15.9266 -44.1003L196.667 141.337L323.352 264.99L208.989 132.482L28.2485 -52.9551Z" fill="url(#paint2_linear_228_230)"/>
</g>
<g opacity="0.8" filter="url(#filter11_f_228_230)">
<path d="M-79.939 -31.4893L-92.2609 -22.6345L88.4793 162.803L215.165 286.456L100.801 153.948L-79.939 -31.4893Z" fill="url(#paint3_linear_228_230)"/>
</g>
<g opacity="0.2" filter="url(#filter12_f_228_230)">
<path d="M-32.8857 -21.894L-45.2077 -13.0393L135.532 172.398L262.218 296.051L147.854 163.543L-32.8857 -21.894Z" fill="url(#paint4_linear_228_230)"/>
</g>
<g opacity="0.2" filter="url(#filter13_f_228_230)">
<path d="M59.8193 37.0137L47.4974 45.8684L228.238 231.306L354.923 354.959L240.56 222.451L59.8193 37.0137Z" fill="url(#paint5_linear_228_230)"/>
</g>
</g>
<g style="mix-blend-mode:hard-light" opacity="0.5">
<g style="mix-blend-mode:plus-lighter" opacity="0.8" filter="url(#filter14_f_228_230)">
<path d="M-100.868 -108.799L-113.19 -99.9444L67.5501 85.4927L194.236 209.146L79.872 76.6379L-100.868 -108.799Z" fill="#007AFF"/>
</g>
<g style="mix-blend-mode:plus-lighter" opacity="0.8" filter="url(#filter15_f_228_230)">
<path d="M-81.4683 -122.27L-93.7902 -113.415L86.95 72.022L213.636 195.675L99.2719 63.1672L-81.4683 -122.27Z" fill="#007AFF"/>
</g>
<g style="mix-blend-mode:plus-lighter" opacity="0.8" filter="url(#filter16_f_228_230)">
<path d="M-52.8916 -142.955L-65.2136 -134.1L115.527 51.3369L242.212 174.99L127.849 42.4821L-52.8916 -142.955Z" fill="#007AFF"/>
</g>
<g style="mix-blend-mode:plus-lighter" opacity="0.8" filter="url(#filter17_f_228_230)">
<path d="M-161.079 -121.489L-173.401 -112.634L7.33913 72.8027L134.025 196.456L19.6611 63.9479L-161.079 -121.489Z" fill="#007AFF"/>
</g>
<g style="mix-blend-mode:plus-lighter" opacity="0.2" filter="url(#filter18_f_228_230)">
<path d="M-114.026 -111.894L-126.348 -103.039L54.3923 82.3979L181.078 206.051L66.7143 73.5432L-114.026 -111.894Z" fill="#007AFF"/>
<path d="M-114.026 -111.894L-126.348 -103.039L54.3923 82.3979L181.078 206.051L66.7143 73.5432L-114.026 -111.894Z" fill="#007AFF"/>
</g>
<g style="mix-blend-mode:plus-lighter" opacity="0.2" filter="url(#filter19_f_228_230)">
<path d="M-114.026 -111.894L-126.348 -103.039L54.3923 82.3979L181.078 206.051L66.7143 73.5432L-114.026 -111.894Z" fill="#007AFF"/>
<path d="M-114.026 -111.894L-126.348 -103.039L54.3923 82.3979L181.078 206.051L66.7143 73.5432L-114.026 -111.894Z" fill="#007AFF"/>
</g>
<g style="mix-blend-mode:plus-lighter" opacity="0.2" filter="url(#filter20_f_228_230)">
<path d="M-21.3208 -52.9862L-33.6428 -44.1314L147.097 141.306L273.783 264.959L159.419 132.451L-21.3208 -52.9862Z" fill="#007AFF"/>
<path d="M-21.3208 -52.9862L-33.6428 -44.1314L147.097 141.306L273.783 264.959L159.419 132.451L-21.3208 -52.9862Z" fill="#007AFF"/>
</g>
<g style="mix-blend-mode:plus-lighter" opacity="0.2" filter="url(#filter21_f_228_230)">
<path d="M-21.3208 -52.9862L-33.6428 -44.1314L147.097 141.306L273.783 264.959L159.419 132.451L-21.3208 -52.9862Z" fill="#007AFF"/>
<path d="M-21.3208 -52.9862L-33.6428 -44.1314L147.097 141.306L273.783 264.959L159.419 132.451L-21.3208 -52.9862Z" fill="#007AFF"/>
</g>
</g>
<g style="mix-blend-mode:plus-lighter" opacity="0.5">
<g style="mix-blend-mode:plus-lighter" opacity="0.8" filter="url(#filter22_f_228_230)">
<path d="M-171.191 -188.799L-183.513 -179.944L-2.77269 5.49309L123.913 129.146L9.54929 -3.36169L-171.191 -188.799Z" fill="#007AFF"/>
</g>
<g style="mix-blend-mode:plus-lighter" opacity="0.8" filter="url(#filter23_f_228_230)">
<path d="M-151.791 -202.269L-164.113 -193.415L16.6272 -7.97761L143.313 115.675L28.9492 -16.8324L-151.791 -202.269Z" fill="#007AFF"/>
</g>
<g style="mix-blend-mode:plus-lighter" opacity="0.8" filter="url(#filter24_f_228_230)">
<path d="M-123.214 -222.955L-135.536 -214.1L45.2039 -28.6627L171.89 94.9903L57.5259 -37.5175L-123.214 -222.955Z" fill="#007AFF"/>
</g>
<g style="mix-blend-mode:plus-lighter" opacity="0.8" filter="url(#filter25_f_228_230)">
<path d="M-231.402 -201.489L-243.724 -192.634L-62.9836 -7.19685L63.7021 116.456L-50.6616 -16.0516L-231.402 -201.489Z" fill="#007AFF"/>
</g>
<g style="mix-blend-mode:plus-lighter" opacity="0.2" filter="url(#filter26_f_228_230)">
<path d="M-184.349 -191.893L-196.671 -183.039L-15.9304 2.39836L110.755 126.051L-3.60844 -6.45642L-184.349 -191.893Z" fill="#007AFF"/>
<path d="M-184.349 -191.893L-196.671 -183.039L-15.9304 2.39836L110.755 126.051L-3.60844 -6.45642L-184.349 -191.893Z" fill="#007AFF"/>
</g>
<g style="mix-blend-mode:plus-lighter" opacity="0.2" filter="url(#filter27_f_228_230)">
<path d="M-184.349 -191.893L-196.671 -183.039L-15.9304 2.39836L110.755 126.051L-3.60844 -6.45642L-184.349 -191.893Z" fill="#007AFF"/>
<path d="M-184.349 -191.893L-196.671 -183.039L-15.9304 2.39836L110.755 126.051L-3.60844 -6.45642L-184.349 -191.893Z" fill="#007AFF"/>
</g>
<g style="mix-blend-mode:plus-lighter" opacity="0.2" filter="url(#filter28_f_228_230)">
<path d="M-91.6436 -132.986L-103.966 -124.131L76.7747 61.3061L203.46 184.959L89.0967 52.4513L-91.6436 -132.986Z" fill="#007AFF"/>
<path d="M-91.6436 -132.986L-103.966 -124.131L76.7747 61.3061L203.46 184.959L89.0967 52.4513L-91.6436 -132.986Z" fill="#007AFF"/>
</g>
<g style="mix-blend-mode:plus-lighter" opacity="0.2" filter="url(#filter29_f_228_230)">
<path d="M-91.6436 -132.986L-103.966 -124.131L76.7747 61.3061L203.46 184.959L89.0967 52.4513L-91.6436 -132.986Z" fill="#007AFF"/>
<path d="M-91.6436 -132.986L-103.966 -124.131L76.7747 61.3061L203.46 184.959L89.0967 52.4513L-91.6436 -132.986Z" fill="#007AFF"/>
</g>
</g>
<g style="mix-blend-mode:plus-lighter" opacity="0.5">
<g opacity="0.8" filter="url(#filter30_f_228_230)">
<path d="M-11.8442 -129.749L-25.1044 -122.14L133.562 79.8207L245.494 215.09L146.822 72.2113L-11.8442 -129.749Z" fill="#007AFF"/>
</g>
<g opacity="0.8" filter="url(#filter31_f_228_230)">
<path d="M8.97998 -141.262L-4.28014 -133.652L154.386 68.3081L266.318 203.578L167.646 60.6987L8.97998 -141.262Z" fill="#007AFF"/>
</g>
<g opacity="0.8" filter="url(#filter32_f_228_230)">
<path d="M39.7476 -159.058L26.4874 -151.448L185.153 50.5121L297.085 185.782L198.414 42.9027L39.7476 -159.058Z" fill="#007AFF" fill-opacity="0.15"/>
</g>
<g opacity="0.8" filter="url(#filter33_f_228_230)">
<path d="M-70.2803 -148.215L-83.5404 -140.606L75.1256 61.3547L187.058 196.624L88.3857 53.7454L-70.2803 -148.215Z" fill="#007AFF"/>
</g>
<g opacity="0.2" filter="url(#filter34_f_228_230)">
<path d="M-24.5771 -134.104L-37.8373 -126.495L120.829 75.4653L232.761 210.735L134.089 67.856L-24.5771 -134.104Z" fill="#007AFF"/>
</g>
<g opacity="0.2" filter="url(#filter35_f_228_230)">
<path d="M60.918 -66.5213L47.6578 -58.9119L206.324 143.048L318.256 278.318L219.584 135.439L60.918 -66.5213Z" fill="#007AFF"/>
</g>
</g>
<g opacity="0.5">
<g opacity="0.8" filter="url(#filter36_f_228_230)">
<path d="M-11.8442 -129.749L-25.1044 -122.14L133.562 79.8207L245.494 215.09L146.822 72.2113L-11.8442 -129.749Z" fill="#007AFF"/>
</g>
<g opacity="0.8" filter="url(#filter37_f_228_230)">
<path d="M8.97998 -141.262L-4.28014 -133.652L154.386 68.3081L266.318 203.578L167.646 60.6987L8.97998 -141.262Z" fill="#007AFF"/>
</g>
<g opacity="0.8" filter="url(#filter38_f_228_230)">
<path d="M39.7476 -159.058L26.4874 -151.448L185.153 50.5121L297.085 185.782L198.414 42.9027L39.7476 -159.058Z" fill="#007AFF" fill-opacity="0.15"/>
</g>
<g opacity="0.8" filter="url(#filter39_f_228_230)">
<path d="M-70.2803 -148.215L-83.5404 -140.606L75.1256 61.3547L187.058 196.624L88.3857 53.7454L-70.2803 -148.215Z" fill="#007AFF"/>
</g>
<g opacity="0.2" filter="url(#filter40_f_228_230)">
<path d="M-24.5771 -134.104L-37.8373 -126.495L120.829 75.4653L232.761 210.735L134.089 67.856L-24.5771 -134.104Z" fill="#007AFF"/>
</g>
<g opacity="0.2" filter="url(#filter41_f_228_230)">
<path d="M60.918 -66.5213L47.6578 -58.9119L206.324 143.048L318.256 278.318L219.584 135.439L60.918 -66.5213Z" fill="#007AFF"/>
</g>
</g>
<g opacity="0.5">
<g opacity="0.8" filter="url(#filter42_f_228_230)">
<path d="M-178.718 13.5118L-187.696 25.3131L43.861 153.713L204.162 237.664L52.8384 141.912L-178.718 13.5118Z" fill="#007AFF"/>
</g>
<g opacity="0.8" filter="url(#filter43_f_228_230)">
<path d="M-164.434 -4.61859L-173.411 7.18275L58.1452 135.582L218.446 219.534L67.1225 123.781L-164.434 -4.61859Z" fill="url(#paint6_linear_228_230)"/>
</g>
<g opacity="0.8" filter="url(#filter44_f_228_230)">
<path d="M-143.663 -32.1303L-152.64 -20.329L78.9162 108.071L239.217 192.022L87.8935 96.2694L-143.663 -32.1303Z" fill="#007AFF"/>
</g>
<g opacity="0.8" filter="url(#filter45_f_228_230)">
<path d="M-240.309 17.6722L-249.286 29.4735L-17.7293 157.873L142.572 241.824L-8.75197 146.072L-240.309 17.6722Z" fill="#007AFF"/>
</g>
<g opacity="0.2" filter="url(#filter46_f_228_230)">
<path d="M-192.28 14.1137L-201.257 25.915L30.2995 154.315L190.6 238.266L39.2768 142.513L-192.28 14.1137Z" fill="url(#paint7_linear_228_230)"/>
</g>
<g opacity="0.2" filter="url(#filter47_f_228_230)">
<path d="M-84.98 45.3527L-93.9573 57.1541L137.599 185.554L297.9 269.505L146.577 173.752L-84.98 45.3527Z" fill="url(#paint8_linear_228_230)"/>
</g>
</g>
<g opacity="0.5">
<g opacity="0.8" filter="url(#filter48_f_228_230)">
<path d="M-178.718 13.5115L-187.696 25.3129L43.861 153.713L204.162 237.664L52.8384 141.911L-178.718 13.5115Z" fill="url(#paint9_linear_228_230)"/>
</g>
<g opacity="0.8" filter="url(#filter49_f_228_230)">
<path d="M-164.434 -4.61884L-173.411 7.1825L58.1452 135.582L218.446 219.533L67.1225 123.781L-164.434 -4.61884Z" fill="url(#paint10_linear_228_230)"/>
</g>
<g opacity="0.8" filter="url(#filter50_f_228_230)">
<path d="M-143.663 -32.1306L-152.64 -20.3292L78.9162 108.071L239.217 192.022L87.8935 96.2692L-143.663 -32.1306Z" fill="url(#paint11_linear_228_230)"/>
</g>
<g opacity="0.8" filter="url(#filter51_f_228_230)">
<path d="M-240.309 17.6719L-249.286 29.4733L-17.7293 157.873L142.572 241.824L-8.75197 146.072L-240.309 17.6719Z" fill="url(#paint12_linear_228_230)"/>
</g>
<g opacity="0.2" filter="url(#filter52_f_228_230)">
<path d="M-192.28 14.1135L-201.257 25.9148L30.2995 154.315L190.6 238.266L39.2768 142.513L-192.28 14.1135Z" fill="url(#paint13_linear_228_230)"/>
</g>
<g opacity="0.2" filter="url(#filter53_f_228_230)">
<path d="M-84.98 45.3525L-93.9573 57.1538L137.599 185.554L297.9 269.505L146.577 173.752L-84.98 45.3525Z" fill="url(#paint14_linear_228_230)"/>
</g>
</g>
<g style="mix-blend-mode:plus-lighter" opacity="0.5">
<path opacity="0.5" d="M48.5295 48.5231C49.4154 48.2366 49.4758 47.0785 48.6243 46.706C48.4382 46.6268 48.2385 46.6169 48.0452 46.6774C47.1498 46.9534 47.0988 48.122 47.9504 48.4945C48.1364 48.5737 48.3361 48.5836 48.5295 48.5231Z" fill="white"/>
<path opacity="0.5" d="M107.29 136.419C108.176 136.132 108.236 134.974 107.385 134.602C107.198 134.522 106.999 134.513 106.805 134.573C105.91 134.849 105.859 136.018 106.711 136.39C106.897 136.469 107.096 136.479 107.29 136.419Z" fill="white"/>
<path opacity="0.5" d="M77.7468 101.688C78.6327 101.402 78.6931 100.243 77.8416 99.871C77.6555 99.7917 77.4558 99.7819 77.2625 99.8424C76.3671 100.118 76.3161 101.287 77.1677 101.659C77.3537 101.739 77.5534 101.749 77.7468 101.688Z" fill="white"/>
<path opacity="0.5" d="M118.34 117.721C119.225 117.435 119.286 116.277 118.434 115.904C118.248 115.825 118.049 115.815 117.855 115.875C116.96 116.151 116.909 117.32 117.76 117.693C117.946 117.772 118.146 117.782 118.34 117.721Z" fill="white"/>
<path opacity="0.5" d="M93.9841 87.9986C94.87 87.7121 94.9304 86.554 94.0789 86.1815C93.8928 86.1022 93.6931 86.0923 93.4998 86.1528C92.6044 86.4288 92.5534 87.5974 93.405 87.9699C93.591 88.0492 93.7907 88.0591 93.9841 87.9986Z" fill="white"/>
<path opacity="0.5" d="M69.0896 70.0514C69.9755 69.765 70.0359 68.6068 69.1843 68.2344C68.9983 68.1551 68.7986 68.1452 68.6052 68.2057C67.7099 68.4817 67.6589 69.6503 68.5104 70.0228C68.6965 70.1021 68.8962 70.1119 69.0896 70.0514Z" fill="white"/>
<path opacity="0.5" d="M143.942 160.627C144.828 160.34 144.888 159.182 144.037 158.81C143.851 158.73 143.651 158.721 143.458 158.781C142.562 159.057 142.511 160.226 143.363 160.598C143.549 160.677 143.749 160.687 143.942 160.627Z" fill="white"/>
<path opacity="0.5" d="M41.5778 58.491C42.4637 58.2045 42.5242 57.0464 41.6726 56.6739C41.4866 56.5947 41.2869 56.5848 41.0935 56.6453C40.1981 56.9213 40.1472 58.0899 40.9987 58.4624C41.1848 58.5416 41.3845 58.5515 41.5778 58.491Z" fill="white"/>
<path d="M48.7712 79.2466C49.6571 78.9601 49.7175 77.802 48.866 77.4295C48.6799 77.3502 48.4802 77.3403 48.2869 77.4008C47.3915 77.6768 47.3405 78.8454 48.1921 79.2179C48.3781 79.2972 48.5778 79.307 48.7712 79.2466Z" fill="white"/>
<path d="M23.8776 61.2994C24.7636 61.0129 24.824 59.8548 23.9724 59.4823C23.7864 59.4031 23.5867 59.3932 23.3933 59.4537C22.4979 59.7297 22.447 60.8983 23.2985 61.2708C23.4846 61.35 23.6843 61.3599 23.8776 61.2994Z" fill="white"/>
<path d="M92.3811 109.594C93.267 109.308 93.3274 108.15 92.4758 107.777C92.2898 107.698 92.0901 107.688 91.8967 107.748C91.0014 108.024 90.9504 109.193 91.8019 109.566C91.988 109.645 92.1877 109.655 92.3811 109.594Z" fill="white"/>
<path d="M27.4773 42.609C28.3632 42.3225 28.4236 41.1644 27.572 40.7919C27.386 40.7126 27.1863 40.7028 26.9929 40.7633C26.0976 41.0392 26.0466 42.2079 26.8981 42.5803C27.0842 42.6596 27.2839 42.6695 27.4773 42.609Z" fill="white"/>
<path opacity="0.5" d="M75.8913 25.5254C76.7772 25.239 76.8376 24.0808 75.9861 23.7084C75.8 23.6291 75.6004 23.6192 75.407 23.6797C74.5116 23.9557 74.4607 25.1243 75.3122 25.4968C75.4983 25.5761 75.698 25.5859 75.8913 25.5254Z" fill="white"/>
<path d="M34.111 28.0651C34.997 27.7786 35.0574 26.6205 34.2058 26.248C34.0198 26.1687 33.8201 26.1589 33.6267 26.2194C32.7313 26.4954 32.6804 27.664 33.5319 28.0365C33.718 28.1157 33.9177 28.1256 34.111 28.0651Z" fill="white"/>
<path opacity="0.5" d="M137.679 97.9439C138.565 97.6574 138.625 96.4993 137.774 96.1268C137.588 96.0475 137.388 96.0377 137.195 96.0982C136.299 96.3741 136.248 97.5428 137.1 97.9152C137.286 97.9945 137.486 98.0044 137.679 97.9439Z" fill="white"/>
<path opacity="0.5" d="M85.2702 68.4356C86.1561 68.1492 86.2165 66.991 85.365 66.6186C85.1789 66.5393 84.9793 66.5294 84.7859 66.5899C83.8905 66.8659 83.8396 68.0345 84.6911 68.407C84.8772 68.4863 85.0769 68.4961 85.2702 68.4356Z" fill="white"/>
<path opacity="0.5" d="M60.3767 50.4884C61.2626 50.2019 61.323 49.0438 60.4715 48.6713C60.2854 48.592 60.0857 48.5822 59.8923 48.6427C58.997 48.9186 58.946 50.0873 59.7975 50.4597C59.9836 50.539 60.1833 50.5489 60.3767 50.4884Z" fill="white"/>
<path opacity="0.5" d="M135.23 141.064C136.116 140.778 136.176 139.62 135.325 139.247C135.139 139.168 134.939 139.158 134.746 139.219C133.85 139.495 133.8 140.663 134.651 141.036C134.837 141.115 135.037 141.125 135.23 141.064Z" fill="white"/>
<path opacity="0.5" d="M38.6325 73.9397C39.5184 73.6532 39.5788 72.4951 38.7273 72.1226C38.5412 72.0433 38.3416 72.0334 38.1482 72.0939C37.2528 72.3699 37.2019 73.5385 38.0534 73.911C38.2395 73.9903 38.4392 74.0002 38.6325 73.9397Z" fill="white"/>
<path d="M210.373 198.6C211.259 198.314 211.319 197.156 210.468 196.783C210.281 196.704 210.082 196.694 209.888 196.754C208.993 197.03 208.942 198.199 209.794 198.572C209.98 198.651 210.179 198.661 210.373 198.6Z" fill="white"/>
<path d="M42.7783 20.9822C43.5707 20.4933 43.354 19.3541 42.4383 19.1948C42.2387 19.162 42.0424 19.1999 41.869 19.3046C41.0649 19.7856 41.2933 20.9328 42.209 21.0921C42.4086 21.1249 42.6049 21.087 42.7783 20.9822Z" fill="white"/>
<path d="M109.374 61.054C110.26 60.7675 110.32 59.6094 109.469 59.2369C109.282 59.1576 109.083 59.1478 108.889 59.2083C107.994 59.4842 107.943 60.6529 108.795 61.0253C108.981 61.1046 109.18 61.1145 109.374 61.054Z" fill="white"/>
<path d="M56.9675 31.5467C57.8534 31.2603 57.9138 30.1021 57.0623 29.7297C56.8762 29.6504 56.6765 29.6405 56.4832 29.701C55.5878 29.977 55.5368 31.1456 56.3884 31.5181C56.5744 31.5974 56.7741 31.6072 56.9675 31.5467Z" fill="white"/>
<path d="M124.293 147.319C125.085 146.83 124.869 145.691 123.953 145.531C123.753 145.499 123.557 145.536 123.384 145.641C122.58 146.122 122.808 147.269 123.724 147.429C123.923 147.461 124.12 147.424 124.293 147.319Z" fill="white"/>
<path d="M152.957 116.569C153.843 116.283 153.904 115.125 153.052 114.752C152.866 114.673 152.666 114.663 152.473 114.724C151.578 115 151.527 116.168 152.378 116.541C152.564 116.62 152.764 116.63 152.957 116.569Z" fill="white"/>
<path d="M100.996 91.0711C101.882 90.7847 101.942 89.6265 101.091 89.2541C100.905 89.1748 100.705 89.1649 100.511 89.2254C99.6161 89.5014 99.5651 90.67 100.417 91.0425C100.603 91.1218 100.802 91.1316 100.996 91.0711Z" fill="white"/>
<path d="M164.225 167.966C165.111 167.68 165.172 166.521 164.32 166.149C164.134 166.07 163.934 166.06 163.741 166.12C162.846 166.396 162.795 167.565 163.646 167.937C163.832 168.017 164.032 168.026 164.225 167.966Z" fill="white"/>
<path d="M202.475 169.798C203.361 169.512 203.422 168.353 202.57 167.981C202.384 167.902 202.184 167.892 201.991 167.952C201.096 168.228 201.045 169.397 201.896 169.769C202.082 169.849 202.282 169.859 202.475 169.798Z" fill="white"/>
<path d="M103.288 101.14C104.174 100.853 104.234 99.6952 103.383 99.3227C103.197 99.2435 102.997 99.2336 102.803 99.2941C101.908 99.5701 101.857 100.739 102.709 101.111C102.895 101.19 103.094 101.2 103.288 101.14Z" fill="white"/>
<path d="M179.825 180.755C180.711 180.469 180.771 179.31 179.92 178.938C179.734 178.859 179.534 178.849 179.341 178.909C178.445 179.185 178.394 180.354 179.246 180.726C179.432 180.806 179.632 180.815 179.825 180.755Z" fill="white"/>
<path d="M50.8816 71.6321C51.7675 71.3456 51.8279 70.1875 50.9763 69.815C50.7903 69.7358 50.5906 69.7259 50.3972 69.7864C49.5018 70.0624 49.4509 71.231 50.3024 71.6035C50.4885 71.6827 50.6882 71.6926 50.8816 71.6321Z" fill="white"/>
<path d="M25.9851 53.6856C26.871 53.3992 26.9314 52.241 26.0799 51.8686C25.8938 51.7893 25.6941 51.7794 25.5007 51.8399C24.6054 52.1159 24.5544 53.2845 25.4059 53.657C25.592 53.7363 25.7917 53.7461 25.9851 53.6856Z" fill="white"/>
<path d="M98.4704 123.227C99.3563 122.941 99.4167 121.783 98.5652 121.41C98.3791 121.331 98.1795 121.321 97.9861 121.381C97.0907 121.657 97.0398 122.826 97.8913 123.198C98.0774 123.278 98.2771 123.288 98.4704 123.227Z" fill="white"/>
<path d="M175.639 153.535C176.525 153.248 176.586 152.09 175.734 151.718C175.548 151.638 175.348 151.629 175.155 151.689C174.26 151.965 174.209 153.134 175.06 153.506C175.246 153.585 175.446 153.595 175.639 153.535Z" fill="white"/>
<path d="M120.555 92.2307C121.441 91.9443 121.502 90.7862 120.65 90.4137C120.464 90.3344 120.264 90.3245 120.071 90.385C119.176 90.661 119.125 91.8296 119.976 92.2021C120.162 92.2814 120.362 92.2912 120.555 92.2307Z" fill="white"/>
<path d="M71.406 63.1731C72.2919 62.8867 72.3523 61.7285 71.5008 61.3561C71.3147 61.2768 71.115 61.2669 70.9216 61.3274C70.0263 61.6034 69.9753 62.772 70.8268 63.1445C71.0129 63.2238 71.2126 63.2336 71.406 63.1731Z" fill="white"/>
<path opacity="0.5" d="M72.0241 111.271C72.91 110.984 72.9704 109.826 72.1189 109.454C71.9328 109.374 71.7332 109.365 71.5398 109.425C70.6444 109.701 70.5935 110.87 71.445 111.242C71.6311 111.321 71.8308 111.331 72.0241 111.271Z" fill="white"/>
<path opacity="0.5" d="M135.482 122.083C136.368 121.796 136.428 120.638 135.577 120.266C135.391 120.187 135.191 120.177 134.998 120.237C134.102 120.513 134.051 121.682 134.903 122.054C135.089 122.133 135.289 122.143 135.482 122.083Z" fill="white"/>
<path opacity="0.5" d="M71.7468 89.3268C72.6327 89.0404 72.6931 87.8822 71.8416 87.5097C71.6555 87.4305 71.4558 87.4206 71.2625 87.4811C70.3671 87.7571 70.3161 88.9257 71.1677 89.2982C71.3537 89.3775 71.5534 89.3873 71.7468 89.3268Z" fill="white"/>
<path d="M98.5534 67.9534C99.4393 67.6669 99.4997 66.5088 98.6482 66.1363C98.4621 66.0571 98.2625 66.0472 98.0691 66.1077C97.1737 66.3837 97.1228 67.5523 97.9743 67.9248C98.1604 68.004 98.3601 68.0139 98.5534 67.9534Z" fill="white"/>
<path d="M164.062 138.513C164.948 138.227 165.008 137.068 164.157 136.696C163.97 136.617 163.771 136.607 163.577 136.667C162.682 136.943 162.631 138.112 163.483 138.484C163.669 138.564 163.868 138.573 164.062 138.513Z" fill="white"/>
<path d="M46.1472 38.4458C47.0331 38.1594 47.0935 37.0012 46.242 36.6288C46.0559 36.5495 45.8562 36.5396 45.6628 36.6001C44.7675 36.8761 44.7165 38.0447 45.568 38.4172C45.7541 38.4965 45.9538 38.5063 46.1472 38.4458Z" fill="white"/>
<path d="M15.6965 27.6101C16.5824 27.3236 16.6428 26.1655 15.7913 25.793C15.6052 25.7137 15.4055 25.7039 15.2122 25.7644C14.3168 26.0403 14.2658 27.209 15.1174 27.5814C15.3034 27.6607 15.5031 27.6706 15.6965 27.6101Z" fill="white"/>
<path opacity="0.5" d="M116.65 127.043C117.536 126.756 117.596 125.598 116.745 125.226C116.559 125.147 116.359 125.137 116.166 125.197C115.27 125.473 115.219 126.642 116.071 127.014C116.257 127.094 116.457 127.103 116.65 127.043Z" fill="white"/>
<path opacity="0.5" d="M64.2443 97.5363C65.1303 97.2498 65.1907 96.0917 64.3391 95.7192C64.1531 95.6399 63.9534 95.6301 63.76 95.6906C62.8646 95.9665 62.8137 97.1352 63.6652 97.5076C63.8513 97.5869 64.051 97.5968 64.2443 97.5363Z" fill="white"/>
<path opacity="0.5" d="M127.702 108.347C128.588 108.061 128.648 106.903 127.797 106.53C127.611 106.451 127.411 106.441 127.218 106.502C126.322 106.778 126.271 107.946 127.123 108.319C127.309 108.398 127.508 108.408 127.702 108.347Z" fill="white"/>
<path opacity="0.5" d="M88.6501 57.42C89.536 57.1336 89.5964 55.9754 88.7449 55.6029C88.5588 55.5237 88.3591 55.5138 88.1658 55.5743C87.2704 55.8503 87.2194 57.0189 88.071 57.3914C88.257 57.4707 88.4567 57.4805 88.6501 57.42Z" fill="white"/>
<path d="M186.109 197.906C186.995 197.62 187.055 196.462 186.204 196.089C186.018 196.01 185.818 196 185.625 196.06C184.729 196.336 184.678 197.505 185.53 197.877C185.716 197.957 185.916 197.967 186.109 197.906Z" fill="white"/>
<path d="M116.739 74.5974C117.625 74.3109 117.685 73.1528 116.834 72.7803C116.648 72.701 116.448 72.6912 116.255 72.7517C115.359 73.0276 115.308 74.1963 116.16 74.5687C116.346 74.648 116.546 74.6579 116.739 74.5974Z" fill="white"/>
<path d="M74.1482 39.2722C75.0341 38.9858 75.0945 37.8277 74.2429 37.4552C74.0569 37.3759 73.8572 37.366 73.6638 37.4265C72.7684 37.7025 72.7175 38.8711 73.569 39.2436C73.7551 39.3229 73.9548 39.3327 74.1482 39.2722Z" fill="white"/>
</g>
<defs>
<filter id="filter0_f_228_230" x="-186.64" y="-182.249" width="454.325" height="464.844" filterUnits="userSpaceOnUse" color-interpolation-filters="sRGB">
<feFlood flood-opacity="0" result="BackgroundImageFix"/>
<feBlend mode="normal" in="SourceGraphic" in2="BackgroundImageFix" result="shape"/>
<feGaussianBlur stdDeviation="36.7249" result="effect1_foregroundBlur_228_230"/>
</filter>
<filter id="filter1_f_228_230" x="-167.24" y="-195.72" width="454.325" height="464.844" filterUnits="userSpaceOnUse" color-interpolation-filters="sRGB">
<feFlood flood-opacity="0" result="BackgroundImageFix"/>
<feBlend mode="normal" in="SourceGraphic" in2="BackgroundImageFix" result="shape"/>
<feGaussianBlur stdDeviation="36.7249" result="effect1_foregroundBlur_228_230"/>
</filter>
<filter id="filter2_f_228_230" x="-138.663" y="-216.405" width="454.325" height="464.844" filterUnits="userSpaceOnUse" color-interpolation-filters="sRGB">
<feFlood flood-opacity="0" result="BackgroundImageFix"/>
<feBlend mode="normal" in="SourceGraphic" in2="BackgroundImageFix" result="shape"/>
<feGaussianBlur stdDeviation="36.7249" result="effect1_foregroundBlur_228_230"/>
</filter>
<filter id="filter3_f_228_230" x="-246.851" y="-194.939" width="454.325" height="464.844" filterUnits="userSpaceOnUse" color-interpolation-filters="sRGB">
<feFlood flood-opacity="0" result="BackgroundImageFix"/>
<feBlend mode="normal" in="SourceGraphic" in2="BackgroundImageFix" result="shape"/>
<feGaussianBlur stdDeviation="36.7249" result="effect1_foregroundBlur_228_230"/>
</filter>
<filter id="filter4_f_228_230" x="-168.133" y="-153.68" width="390.997" height="401.516" filterUnits="userSpaceOnUse" color-interpolation-filters="sRGB">
<feFlood flood-opacity="0" result="BackgroundImageFix"/>
<feBlend mode="normal" in="SourceGraphic" in2="BackgroundImageFix" result="shape"/>
<feGaussianBlur stdDeviation="20.8928" result="effect1_foregroundBlur_228_230"/>
</filter>
<filter id="filter5_f_228_230" x="-168.133" y="-153.68" width="390.997" height="401.516" filterUnits="userSpaceOnUse" color-interpolation-filters="sRGB">
<feFlood flood-opacity="0" result="BackgroundImageFix"/>
<feBlend mode="normal" in="SourceGraphic" in2="BackgroundImageFix" result="shape"/>
<feGaussianBlur stdDeviation="20.8928" result="effect1_foregroundBlur_228_230"/>
</filter>
<filter id="filter6_f_228_230" x="-75.4283" y="-94.7719" width="390.997" height="401.516" filterUnits="userSpaceOnUse" color-interpolation-filters="sRGB">
<feFlood flood-opacity="0" result="BackgroundImageFix"/>
<feBlend mode="normal" in="SourceGraphic" in2="BackgroundImageFix" result="shape"/>
<feGaussianBlur stdDeviation="20.8928" result="effect1_foregroundBlur_228_230"/>
</filter>
<filter id="filter7_f_228_230" x="-75.4283" y="-94.7719" width="390.997" height="401.516" filterUnits="userSpaceOnUse" color-interpolation-filters="sRGB">
<feFlood flood-opacity="0" result="BackgroundImageFix"/>
<feBlend mode="normal" in="SourceGraphic" in2="BackgroundImageFix" result="shape"/>
<feGaussianBlur stdDeviation="20.8928" result="effect1_foregroundBlur_228_230"/>
</filter>
<filter id="filter8_f_228_230" x="-105.5" y="-92.2491" width="454.325" height="464.844" filterUnits="userSpaceOnUse" color-interpolation-filters="sRGB">
<feFlood flood-opacity="0" result="BackgroundImageFix"/>
<feBlend mode="normal" in="SourceGraphic" in2="BackgroundImageFix" result="shape"/>
<feGaussianBlur stdDeviation="36.7249" result="effect1_foregroundBlur_228_230"/>
</filter>
<filter id="filter9_f_228_230" x="-86.0997" y="-105.72" width="454.325" height="464.844" filterUnits="userSpaceOnUse" color-interpolation-filters="sRGB">
<feFlood flood-opacity="0" result="BackgroundImageFix"/>
<feBlend mode="normal" in="SourceGraphic" in2="BackgroundImageFix" result="shape"/>
<feGaussianBlur stdDeviation="36.7249" result="effect1_foregroundBlur_228_230"/>
</filter>
<filter id="filter10_f_228_230" x="-57.523" y="-126.405" width="454.325" height="464.844" filterUnits="userSpaceOnUse" color-interpolation-filters="sRGB">
<feFlood flood-opacity="0" result="BackgroundImageFix"/>
<feBlend mode="normal" in="SourceGraphic" in2="BackgroundImageFix" result="shape"/>
<feGaussianBlur stdDeviation="36.7249" result="effect1_foregroundBlur_228_230"/>
</filter>
<filter id="filter11_f_228_230" x="-165.711" y="-104.939" width="454.325" height="464.844" filterUnits="userSpaceOnUse" color-interpolation-filters="sRGB">
<feFlood flood-opacity="0" result="BackgroundImageFix"/>
<feBlend mode="normal" in="SourceGraphic" in2="BackgroundImageFix" result="shape"/>
<feGaussianBlur stdDeviation="36.7249" result="effect1_foregroundBlur_228_230"/>
</filter>
<filter id="filter12_f_228_230" x="-86.9932" y="-63.6797" width="390.997" height="401.516" filterUnits="userSpaceOnUse" color-interpolation-filters="sRGB">
<feFlood flood-opacity="0" result="BackgroundImageFix"/>
<feBlend mode="normal" in="SourceGraphic" in2="BackgroundImageFix" result="shape"/>
<feGaussianBlur stdDeviation="20.8928" result="effect1_foregroundBlur_228_230"/>
</filter>
<filter id="filter13_f_228_230" x="5.71188" y="-4.77201" width="390.997" height="401.516" filterUnits="userSpaceOnUse" color-interpolation-filters="sRGB">
<feFlood flood-opacity="0" result="BackgroundImageFix"/>
<feBlend mode="normal" in="SourceGraphic" in2="BackgroundImageFix" result="shape"/>
<feGaussianBlur stdDeviation="20.8928" result="effect1_foregroundBlur_228_230"/>
</filter>
<filter id="filter14_f_228_230" x="-186.64" y="-182.249" width="454.325" height="464.844" filterUnits="userSpaceOnUse" color-interpolation-filters="sRGB">
<feFlood flood-opacity="0" result="BackgroundImageFix"/>
<feBlend mode="normal" in="SourceGraphic" in2="BackgroundImageFix" result="shape"/>
<feGaussianBlur stdDeviation="36.7249" result="effect1_foregroundBlur_228_230"/>
</filter>
<filter id="filter15_f_228_230" x="-167.24" y="-195.72" width="454.325" height="464.844" filterUnits="userSpaceOnUse" color-interpolation-filters="sRGB">
<feFlood flood-opacity="0" result="BackgroundImageFix"/>
<feBlend mode="normal" in="SourceGraphic" in2="BackgroundImageFix" result="shape"/>
<feGaussianBlur stdDeviation="36.7249" result="effect1_foregroundBlur_228_230"/>
</filter>
<filter id="filter16_f_228_230" x="-138.663" y="-216.405" width="454.325" height="464.844" filterUnits="userSpaceOnUse" color-interpolation-filters="sRGB">
<feFlood flood-opacity="0" result="BackgroundImageFix"/>
<feBlend mode="normal" in="SourceGraphic" in2="BackgroundImageFix" result="shape"/>
<feGaussianBlur stdDeviation="36.7249" result="effect1_foregroundBlur_228_230"/>
</filter>
<filter id="filter17_f_228_230" x="-246.851" y="-194.939" width="454.325" height="464.844" filterUnits="userSpaceOnUse" color-interpolation-filters="sRGB">
<feFlood flood-opacity="0" result="BackgroundImageFix"/>
<feBlend mode="normal" in="SourceGraphic" in2="BackgroundImageFix" result="shape"/>
<feGaussianBlur stdDeviation="36.7249" result="effect1_foregroundBlur_228_230"/>
</filter>
<filter id="filter18_f_228_230" x="-168.133" y="-153.68" width="390.997" height="401.516" filterUnits="userSpaceOnUse" color-interpolation-filters="sRGB">
<feFlood flood-opacity="0" result="BackgroundImageFix"/>
<feBlend mode="normal" in="SourceGraphic" in2="BackgroundImageFix" result="shape"/>
<feGaussianBlur stdDeviation="20.8928" result="effect1_foregroundBlur_228_230"/>
</filter>
<filter id="filter19_f_228_230" x="-168.133" y="-153.68" width="390.997" height="401.516" filterUnits="userSpaceOnUse" color-interpolation-filters="sRGB">
<feFlood flood-opacity="0" result="BackgroundImageFix"/>
<feBlend mode="normal" in="SourceGraphic" in2="BackgroundImageFix" result="shape"/>
<feGaussianBlur stdDeviation="20.8928" result="effect1_foregroundBlur_228_230"/>
</filter>
<filter id="filter20_f_228_230" x="-75.4283" y="-94.7719" width="390.997" height="401.516" filterUnits="userSpaceOnUse" color-interpolation-filters="sRGB">
<feFlood flood-opacity="0" result="BackgroundImageFix"/>
<feBlend mode="normal" in="SourceGraphic" in2="BackgroundImageFix" result="shape"/>
<feGaussianBlur stdDeviation="20.8928" result="effect1_foregroundBlur_228_230"/>
</filter>
<filter id="filter21_f_228_230" x="-75.4283" y="-94.7719" width="390.997" height="401.516" filterUnits="userSpaceOnUse" color-interpolation-filters="sRGB">
<feFlood flood-opacity="0" result="BackgroundImageFix"/>
<feBlend mode="normal" in="SourceGraphic" in2="BackgroundImageFix" result="shape"/>
<feGaussianBlur stdDeviation="20.8928" result="effect1_foregroundBlur_228_230"/>
</filter>
<filter id="filter22_f_228_230" x="-256.962" y="-262.249" width="454.325" height="464.844" filterUnits="userSpaceOnUse" color-interpolation-filters="sRGB">
<feFlood flood-opacity="0" result="BackgroundImageFix"/>
<feBlend mode="normal" in="SourceGraphic" in2="BackgroundImageFix" result="shape"/>
<feGaussianBlur stdDeviation="36.7249" result="effect1_foregroundBlur_228_230"/>
</filter>
<filter id="filter23_f_228_230" x="-237.563" y="-275.719" width="454.325" height="464.844" filterUnits="userSpaceOnUse" color-interpolation-filters="sRGB">
<feFlood flood-opacity="0" result="BackgroundImageFix"/>
<feBlend mode="normal" in="SourceGraphic" in2="BackgroundImageFix" result="shape"/>
<feGaussianBlur stdDeviation="36.7249" result="effect1_foregroundBlur_228_230"/>
</filter>
<filter id="filter24_f_228_230" x="-208.986" y="-296.404" width="454.325" height="464.844" filterUnits="userSpaceOnUse" color-interpolation-filters="sRGB">
<feFlood flood-opacity="0" result="BackgroundImageFix"/>
<feBlend mode="normal" in="SourceGraphic" in2="BackgroundImageFix" result="shape"/>
<feGaussianBlur stdDeviation="36.7249" result="effect1_foregroundBlur_228_230"/>
</filter>
<filter id="filter25_f_228_230" x="-317.173" y="-274.938" width="454.325" height="464.844" filterUnits="userSpaceOnUse" color-interpolation-filters="sRGB">
<feFlood flood-opacity="0" result="BackgroundImageFix"/>
<feBlend mode="normal" in="SourceGraphic" in2="BackgroundImageFix" result="shape"/>
<feGaussianBlur stdDeviation="36.7249" result="effect1_foregroundBlur_228_230"/>
</filter>
<filter id="filter26_f_228_230" x="-238.456" y="-233.679" width="390.997" height="401.516" filterUnits="userSpaceOnUse" color-interpolation-filters="sRGB">
<feFlood flood-opacity="0" result="BackgroundImageFix"/>
<feBlend mode="normal" in="SourceGraphic" in2="BackgroundImageFix" result="shape"/>
<feGaussianBlur stdDeviation="20.8928" result="effect1_foregroundBlur_228_230"/>
</filter>
<filter id="filter27_f_228_230" x="-238.456" y="-233.679" width="390.997" height="401.516" filterUnits="userSpaceOnUse" color-interpolation-filters="sRGB">
<feFlood flood-opacity="0" result="BackgroundImageFix"/>
<feBlend mode="normal" in="SourceGraphic" in2="BackgroundImageFix" result="shape"/>
<feGaussianBlur stdDeviation="20.8928" result="effect1_foregroundBlur_228_230"/>
</filter>
<filter id="filter28_f_228_230" x="-145.751" y="-174.771" width="390.997" height="401.516" filterUnits="userSpaceOnUse" color-interpolation-filters="sRGB">
<feFlood flood-opacity="0" result="BackgroundImageFix"/>
<feBlend mode="normal" in="SourceGraphic" in2="BackgroundImageFix" result="shape"/>
<feGaussianBlur stdDeviation="20.8928" result="effect1_foregroundBlur_228_230"/>
</filter>
<filter id="filter29_f_228_230" x="-145.751" y="-174.771" width="390.997" height="401.516" filterUnits="userSpaceOnUse" color-interpolation-filters="sRGB">
<feFlood flood-opacity="0" result="BackgroundImageFix"/>
<feBlend mode="normal" in="SourceGraphic" in2="BackgroundImageFix" result="shape"/>
<feGaussianBlur stdDeviation="20.8928" result="effect1_foregroundBlur_228_230"/>
</filter>
<filter id="filter30_f_228_230" x="-98.5543" y="-203.199" width="417.498" height="491.739" filterUnits="userSpaceOnUse" color-interpolation-filters="sRGB">
<feFlood flood-opacity="0" result="BackgroundImageFix"/>
<feBlend mode="normal" in="SourceGraphic" in2="BackgroundImageFix" result="shape"/>
<feGaussianBlur stdDeviation="36.7249" result="effect1_foregroundBlur_228_230"/>
</filter>
<filter id="filter31_f_228_230" x="-77.73" y="-214.711" width="417.498" height="491.739" filterUnits="userSpaceOnUse" color-interpolation-filters="sRGB">
<feFlood flood-opacity="0" result="BackgroundImageFix"/>
<feBlend mode="normal" in="SourceGraphic" in2="BackgroundImageFix" result="shape"/>
<feGaussianBlur stdDeviation="36.7249" result="effect1_foregroundBlur_228_230"/>
</filter>
<filter id="filter32_f_228_230" x="-46.9625" y="-232.507" width="417.498" height="491.739" filterUnits="userSpaceOnUse" color-interpolation-filters="sRGB">
<feFlood flood-opacity="0" result="BackgroundImageFix"/>
<feBlend mode="normal" in="SourceGraphic" in2="BackgroundImageFix" result="shape"/>
<feGaussianBlur stdDeviation="36.7249" result="effect1_foregroundBlur_228_230"/>
</filter>
<filter id="filter33_f_228_230" x="-156.99" y="-221.665" width="417.498" height="491.739" filterUnits="userSpaceOnUse" color-interpolation-filters="sRGB">
<feFlood flood-opacity="0" result="BackgroundImageFix"/>
<feBlend mode="normal" in="SourceGraphic" in2="BackgroundImageFix" result="shape"/>
<feGaussianBlur stdDeviation="36.7249" result="effect1_foregroundBlur_228_230"/>
</filter>
<filter id="filter34_f_228_230" x="-79.6231" y="-175.89" width="354.17" height="428.411" filterUnits="userSpaceOnUse" color-interpolation-filters="sRGB">
<feFlood flood-opacity="0" result="BackgroundImageFix"/>
<feBlend mode="normal" in="SourceGraphic" in2="BackgroundImageFix" result="shape"/>
<feGaussianBlur stdDeviation="20.8928" result="effect1_foregroundBlur_228_230"/>
</filter>
<filter id="filter35_f_228_230" x="5.87204" y="-108.307" width="354.17" height="428.411" filterUnits="userSpaceOnUse" color-interpolation-filters="sRGB">
<feFlood flood-opacity="0" result="BackgroundImageFix"/>
<feBlend mode="normal" in="SourceGraphic" in2="BackgroundImageFix" result="shape"/>
<feGaussianBlur stdDeviation="20.8928" result="effect1_foregroundBlur_228_230"/>
</filter>
<filter id="filter36_f_228_230" x="-98.5543" y="-203.199" width="417.498" height="491.739" filterUnits="userSpaceOnUse" color-interpolation-filters="sRGB">
<feFlood flood-opacity="0" result="BackgroundImageFix"/>
<feBlend mode="normal" in="SourceGraphic" in2="BackgroundImageFix" result="shape"/>
<feGaussianBlur stdDeviation="36.7249" result="effect1_foregroundBlur_228_230"/>
</filter>
<filter id="filter37_f_228_230" x="-77.73" y="-214.711" width="417.498" height="491.739" filterUnits="userSpaceOnUse" color-interpolation-filters="sRGB">
<feFlood flood-opacity="0" result="BackgroundImageFix"/>
<feBlend mode="normal" in="SourceGraphic" in2="BackgroundImageFix" result="shape"/>
<feGaussianBlur stdDeviation="36.7249" result="effect1_foregroundBlur_228_230"/>
</filter>
<filter id="filter38_f_228_230" x="-46.9625" y="-232.507" width="417.498" height="491.739" filterUnits="userSpaceOnUse" color-interpolation-filters="sRGB">
<feFlood flood-opacity="0" result="BackgroundImageFix"/>
<feBlend mode="normal" in="SourceGraphic" in2="BackgroundImageFix" result="shape"/>
<feGaussianBlur stdDeviation="36.7249" result="effect1_foregroundBlur_228_230"/>
</filter>
<filter id="filter39_f_228_230" x="-156.99" y="-221.665" width="417.498" height="491.739" filterUnits="userSpaceOnUse" color-interpolation-filters="sRGB">
<feFlood flood-opacity="0" result="BackgroundImageFix"/>
<feBlend mode="normal" in="SourceGraphic" in2="BackgroundImageFix" result="shape"/>
<feGaussianBlur stdDeviation="36.7249" result="effect1_foregroundBlur_228_230"/>
</filter>
<filter id="filter40_f_228_230" x="-79.6231" y="-175.89" width="354.17" height="428.411" filterUnits="userSpaceOnUse" color-interpolation-filters="sRGB">
<feFlood flood-opacity="0" result="BackgroundImageFix"/>
<feBlend mode="normal" in="SourceGraphic" in2="BackgroundImageFix" result="shape"/>
<feGaussianBlur stdDeviation="20.8928" result="effect1_foregroundBlur_228_230"/>
</filter>
<filter id="filter41_f_228_230" x="5.87204" y="-108.307" width="354.17" height="428.411" filterUnits="userSpaceOnUse" color-interpolation-filters="sRGB">
<feFlood flood-opacity="0" result="BackgroundImageFix"/>
<feBlend mode="normal" in="SourceGraphic" in2="BackgroundImageFix" result="shape"/>
<feGaussianBlur stdDeviation="20.8928" result="effect1_foregroundBlur_228_230"/>
</filter>
<filter id="filter42_f_228_230" x="-261.146" y="-59.938" width="538.757" height="371.052" filterUnits="userSpaceOnUse" color-interpolation-filters="sRGB">
<feFlood flood-opacity="0" result="BackgroundImageFix"/>
<feBlend mode="normal" in="SourceGraphic" in2="BackgroundImageFix" result="shape"/>
<feGaussianBlur stdDeviation="36.7249" result="effect1_foregroundBlur_228_230"/>
</filter>
<filter id="filter43_f_228_230" x="-246.861" y="-78.0684" width="538.757" height="371.052" filterUnits="userSpaceOnUse" color-interpolation-filters="sRGB">
<feFlood flood-opacity="0" result="BackgroundImageFix"/>
<feBlend mode="normal" in="SourceGraphic" in2="BackgroundImageFix" result="shape"/>
<feGaussianBlur stdDeviation="36.7249" result="effect1_foregroundBlur_228_230"/>
</filter>
<filter id="filter44_f_228_230" x="-226.09" y="-105.58" width="538.757" height="371.052" filterUnits="userSpaceOnUse" color-interpolation-filters="sRGB">
<feFlood flood-opacity="0" result="BackgroundImageFix"/>
<feBlend mode="normal" in="SourceGraphic" in2="BackgroundImageFix" result="shape"/>
<feGaussianBlur stdDeviation="36.7249" result="effect1_foregroundBlur_228_230"/>
</filter>
<filter id="filter45_f_228_230" x="-322.736" y="-55.7776" width="538.757" height="371.052" filterUnits="userSpaceOnUse" color-interpolation-filters="sRGB">
<feFlood flood-opacity="0" result="BackgroundImageFix"/>
<feBlend mode="normal" in="SourceGraphic" in2="BackgroundImageFix" result="shape"/>
<feGaussianBlur stdDeviation="36.7249" result="effect1_foregroundBlur_228_230"/>
</filter>
<filter id="filter46_f_228_230" x="-243.043" y="-27.672" width="475.429" height="307.724" filterUnits="userSpaceOnUse" color-interpolation-filters="sRGB">
<feFlood flood-opacity="0" result="BackgroundImageFix"/>
<feBlend mode="normal" in="SourceGraphic" in2="BackgroundImageFix" result="shape"/>
<feGaussianBlur stdDeviation="20.8928" result="effect1_foregroundBlur_228_230"/>
</filter>
<filter id="filter47_f_228_230" x="-135.743" y="3.56704" width="475.429" height="307.724" filterUnits="userSpaceOnUse" color-interpolation-filters="sRGB">
<feFlood flood-opacity="0" result="BackgroundImageFix"/>
<feBlend mode="normal" in="SourceGraphic" in2="BackgroundImageFix" result="shape"/>
<feGaussianBlur stdDeviation="20.8928" result="effect1_foregroundBlur_228_230"/>
</filter>
<filter id="filter48_f_228_230" x="-261.146" y="-59.9382" width="538.757" height="371.052" filterUnits="userSpaceOnUse" color-interpolation-filters="sRGB">
<feFlood flood-opacity="0" result="BackgroundImageFix"/>
<feBlend mode="normal" in="SourceGraphic" in2="BackgroundImageFix" result="shape"/>
<feGaussianBlur stdDeviation="36.7249" result="effect1_foregroundBlur_228_230"/>
</filter>
<filter id="filter49_f_228_230" x="-246.861" y="-78.0686" width="538.757" height="371.052" filterUnits="userSpaceOnUse" color-interpolation-filters="sRGB">
<feFlood flood-opacity="0" result="BackgroundImageFix"/>
<feBlend mode="normal" in="SourceGraphic" in2="BackgroundImageFix" result="shape"/>
<feGaussianBlur stdDeviation="36.7249" result="effect1_foregroundBlur_228_230"/>
</filter>
<filter id="filter50_f_228_230" x="-226.09" y="-105.58" width="538.757" height="371.052" filterUnits="userSpaceOnUse" color-interpolation-filters="sRGB">
<feFlood flood-opacity="0" result="BackgroundImageFix"/>
<feBlend mode="normal" in="SourceGraphic" in2="BackgroundImageFix" result="shape"/>
<feGaussianBlur stdDeviation="36.7249" result="effect1_foregroundBlur_228_230"/>
</filter>
<filter id="filter51_f_228_230" x="-322.736" y="-55.7778" width="538.757" height="371.052" filterUnits="userSpaceOnUse" color-interpolation-filters="sRGB">
<feFlood flood-opacity="0" result="BackgroundImageFix"/>
<feBlend mode="normal" in="SourceGraphic" in2="BackgroundImageFix" result="shape"/>
<feGaussianBlur stdDeviation="36.7249" result="effect1_foregroundBlur_228_230"/>
</filter>
<filter id="filter52_f_228_230" x="-243.043" y="-27.6722" width="475.429" height="307.724" filterUnits="userSpaceOnUse" color-interpolation-filters="sRGB">
<feFlood flood-opacity="0" result="BackgroundImageFix"/>
<feBlend mode="normal" in="SourceGraphic" in2="BackgroundImageFix" result="shape"/>
<feGaussianBlur stdDeviation="20.8928" result="effect1_foregroundBlur_228_230"/>
</filter>
<filter id="filter53_f_228_230" x="-135.743" y="3.5668" width="475.429" height="307.724" filterUnits="userSpaceOnUse" color-interpolation-filters="sRGB">
<feFlood flood-opacity="0" result="BackgroundImageFix"/>
<feBlend mode="normal" in="SourceGraphic" in2="BackgroundImageFix" result="shape"/>
<feGaussianBlur stdDeviation="20.8928" result="effect1_foregroundBlur_228_230"/>
</filter>
<linearGradient id="paint0_linear_228_230" x1="-25.889" y1="-14.3719" x2="123.539" y2="193.567" gradientUnits="userSpaceOnUse">
<stop stop-color="#1584EB"/>
<stop offset="0.557292" stop-color="#1584EB"/>
<stop offset="1" stop-color="#1572EB"/>
</linearGradient>
<linearGradient id="paint1_linear_228_230" x1="-6.48912" y1="-27.8426" x2="142.939" y2="180.096" gradientUnits="userSpaceOnUse">
<stop stop-color="#1572EB"/>
<stop offset="0.557292" stop-color="#007AFF"/>
<stop offset="1" stop-color="#1560EB"/>
</linearGradient>
<linearGradient id="paint2_linear_228_230" x1="22.0875" y1="-48.5277" x2="171.516" y2="159.411" gradientUnits="userSpaceOnUse">
<stop stop-color="#007AFF" stop-opacity="0.15"/>
<stop offset="1" stop-color="#007AFF"/>
</linearGradient>
<linearGradient id="paint3_linear_228_230" x1="-86.1" y1="-27.0619" x2="63.3281" y2="180.877" gradientUnits="userSpaceOnUse">
<stop stop-color="#007AFF"/>
<stop offset="0.557292" stop-color="#007AFF"/>
<stop offset="1" stop-color="#007AFF"/>
</linearGradient>
<linearGradient id="paint4_linear_228_230" x1="-39.0467" y1="-17.4667" x2="110.381" y2="190.472" gradientUnits="userSpaceOnUse">
<stop stop-color="#007AFF"/>
<stop offset="1" stop-color="#007AFF"/>
</linearGradient>
<linearGradient id="paint5_linear_228_230" x1="53.6583" y1="41.4411" x2="203.086" y2="249.38" gradientUnits="userSpaceOnUse">
<stop stop-color="#007AFF"/>
<stop offset="1" stop-color="#007AFF"/>
</linearGradient>
<linearGradient id="paint6_linear_228_230" x1="-168.923" y1="1.28208" x2="39.6265" y2="159.927" gradientUnits="userSpaceOnUse">
<stop stop-color="#007AFF"/>
<stop offset="0.557292" stop-color="#007AFF"/>
<stop offset="1" stop-color="#007AFF"/>
</linearGradient>
<linearGradient id="paint7_linear_228_230" x1="-196.768" y1="20.0144" x2="11.7808" y2="178.659" gradientUnits="userSpaceOnUse">
<stop stop-color="#007AFF"/>
<stop offset="1" stop-color="#007AFF"/>
</linearGradient>
<linearGradient id="paint8_linear_228_230" x1="-89.4687" y1="51.2534" x2="119.081" y2="209.898" gradientUnits="userSpaceOnUse">
<stop stop-color="#1560EB"/>
<stop offset="1" stop-color="#007AFF"/>
</linearGradient>
<linearGradient id="paint9_linear_228_230" x1="-183.207" y1="19.4122" x2="25.3423" y2="178.057" gradientUnits="userSpaceOnUse">
<stop stop-color="#1584EB"/>
<stop offset="0.557292" stop-color="#1560EB"/>
<stop offset="1" stop-color="#1572EB"/>
</linearGradient>
<linearGradient id="paint10_linear_228_230" x1="-168.923" y1="1.28183" x2="39.6265" y2="159.926" gradientUnits="userSpaceOnUse">
<stop stop-color="#1572EB"/>
<stop offset="0.557292" stop-color="#1584EB"/>
<stop offset="1" stop-color="#1572EB"/>
</linearGradient>
<linearGradient id="paint11_linear_228_230" x1="-148.152" y1="-26.2299" x2="60.3975" y2="132.415" gradientUnits="userSpaceOnUse">
<stop stop-color="#1584EB"/>
<stop offset="1" stop-color="#1560EB"/>
</linearGradient>
<linearGradient id="paint12_linear_228_230" x1="-244.797" y1="23.5726" x2="-36.248" y2="182.217" gradientUnits="userSpaceOnUse">
<stop stop-color="#1584EB"/>
<stop offset="0.557292" stop-color="#1560EB"/>
<stop offset="1" stop-color="#1572EB"/>
</linearGradient>
<linearGradient id="paint13_linear_228_230" x1="-196.768" y1="20.0141" x2="11.7808" y2="178.659" gradientUnits="userSpaceOnUse">
<stop stop-color="#1560EB"/>
<stop offset="1" stop-color="#1560EB"/>
</linearGradient>
<linearGradient id="paint14_linear_228_230" x1="-89.4687" y1="51.2531" x2="119.081" y2="209.898" gradientUnits="userSpaceOnUse">
<stop stop-color="#1572EB"/>
<stop offset="1" stop-color="#1560EB"/>
</linearGradient>
</defs>
</svg>
