<svg width="377" height="423" viewBox="0 0 377 423" fill="none" xmlns="http://www.w3.org/2000/svg">
<g style="mix-blend-mode:hard-light" opacity="0.5">
<g style="mix-blend-mode:plus-lighter" opacity="0.8" filter="url(#filter0_f_228_116)">
<path d="M465.613 -105.799L477.003 -96.9444L309.94 88.4927L192.842 212.146L298.551 79.6379L465.613 -105.799Z" fill="white"/>
</g>
<g style="mix-blend-mode:plus-lighter" opacity="0.8" filter="url(#filter1_f_228_116)">
<path d="M447.682 -119.27L459.071 -110.415L292.009 75.022L174.91 198.675L280.619 66.1672L447.682 -119.27Z" fill="white"/>
</g>
<g style="mix-blend-mode:plus-lighter" opacity="0.8" filter="url(#filter2_f_228_116)">
<path d="M421.268 -139.955L432.657 -131.1L265.595 54.3369L148.496 177.99L254.205 45.4821L421.268 -139.955Z" fill="white"/>
</g>
<g style="mix-blend-mode:plus-lighter" opacity="0.8" filter="url(#filter3_f_228_116)">
<path d="M521.268 -118.489L532.657 -109.634L365.595 75.8027L248.496 199.456L354.205 66.9479L521.268 -118.489Z" fill="white"/>
</g>
<g style="mix-blend-mode:plus-lighter" opacity="0.2" filter="url(#filter4_f_228_116)">
<path d="M477.775 -108.894L489.165 -100.039L322.102 85.3979L205.004 209.051L310.713 76.5432L477.775 -108.894Z" fill="white"/>
<path d="M477.775 -108.894L489.165 -100.039L322.102 85.3979L205.004 209.051L310.713 76.5432L477.775 -108.894Z" fill="white"/>
</g>
<g style="mix-blend-mode:plus-lighter" opacity="0.2" filter="url(#filter5_f_228_116)">
<path d="M477.775 -108.894L489.165 -100.039L322.102 85.3979L205.004 209.051L310.713 76.5432L477.775 -108.894Z" fill="white"/>
<path d="M477.775 -108.894L489.165 -100.039L322.102 85.3979L205.004 209.051L310.713 76.5432L477.775 -108.894Z" fill="white"/>
</g>
<g style="mix-blend-mode:plus-lighter" opacity="0.2" filter="url(#filter6_f_228_116)">
<path d="M392.086 -49.9862L403.475 -41.1314L236.413 144.306L119.314 267.959L225.023 135.451L392.086 -49.9862Z" fill="white"/>
<path d="M392.086 -49.9862L403.475 -41.1314L236.413 144.306L119.314 267.959L225.023 135.451L392.086 -49.9862Z" fill="white"/>
</g>
<g style="mix-blend-mode:plus-lighter" opacity="0.2" filter="url(#filter7_f_228_116)">
<path d="M392.086 -49.9862L403.475 -41.1314L236.413 144.306L119.314 267.959L225.023 135.451L392.086 -49.9862Z" fill="white"/>
<path d="M392.086 -49.9862L403.475 -41.1314L236.413 144.306L119.314 267.959L225.023 135.451L392.086 -49.9862Z" fill="white"/>
</g>
</g>
<g opacity="0.5">
<g opacity="0.8" filter="url(#filter8_f_228_116)">
<path d="M390.613 -15.7993L402.003 -6.94454L234.94 178.493L117.842 302.146L223.551 169.638L390.613 -15.7993Z" fill="url(#paint0_linear_228_116)"/>
</g>
<g opacity="0.8" filter="url(#filter9_f_228_116)">
<path d="M372.682 -29.27L384.071 -20.4152L217.009 165.022L99.9099 288.675L205.619 156.167L372.682 -29.27Z" fill="url(#paint1_linear_228_116)"/>
</g>
<g opacity="0.8" filter="url(#filter10_f_228_116)">
<path d="M346.268 -49.9551L357.657 -41.1003L190.595 144.337L73.4959 267.99L179.205 135.482L346.268 -49.9551Z" fill="url(#paint2_linear_228_116)"/>
</g>
<g opacity="0.8" filter="url(#filter11_f_228_116)">
<path d="M446.268 -28.4893L457.657 -19.6345L290.595 165.803L173.496 289.456L279.205 156.948L446.268 -28.4893Z" fill="url(#paint3_linear_228_116)"/>
</g>
<g opacity="0.2" filter="url(#filter12_f_228_116)">
<path d="M402.775 -18.894L414.165 -10.0393L247.102 175.398L130.004 299.051L235.713 166.543L402.775 -18.894Z" fill="url(#paint4_linear_228_116)"/>
</g>
<g opacity="0.2" filter="url(#filter13_f_228_116)">
<path d="M317.086 40.0137L328.475 48.8684L161.413 234.306L44.3142 357.959L150.023 225.451L317.086 40.0137Z" fill="url(#paint5_linear_228_116)"/>
</g>
</g>
<g style="mix-blend-mode:hard-light" opacity="0.5">
<g style="mix-blend-mode:plus-lighter" opacity="0.8" filter="url(#filter14_f_228_116)">
<path d="M465.613 -105.799L477.003 -96.9444L309.94 88.4927L192.842 212.146L298.551 79.6379L465.613 -105.799Z" fill="#007AFF"/>
</g>
<g style="mix-blend-mode:plus-lighter" opacity="0.8" filter="url(#filter15_f_228_116)">
<path d="M447.682 -119.27L459.071 -110.415L292.009 75.022L174.91 198.675L280.619 66.1672L447.682 -119.27Z" fill="#007AFF"/>
</g>
<g style="mix-blend-mode:plus-lighter" opacity="0.8" filter="url(#filter16_f_228_116)">
<path d="M421.268 -139.955L432.657 -131.1L265.595 54.3369L148.496 177.99L254.205 45.4821L421.268 -139.955Z" fill="#007AFF"/>
</g>
<g style="mix-blend-mode:plus-lighter" opacity="0.8" filter="url(#filter17_f_228_116)">
<path d="M521.268 -118.489L532.657 -109.634L365.595 75.8027L248.496 199.456L354.205 66.9479L521.268 -118.489Z" fill="#007AFF"/>
</g>
<g style="mix-blend-mode:plus-lighter" opacity="0.2" filter="url(#filter18_f_228_116)">
<path d="M477.775 -108.894L489.165 -100.039L322.102 85.3979L205.004 209.051L310.713 76.5432L477.775 -108.894Z" fill="#007AFF"/>
<path d="M477.775 -108.894L489.165 -100.039L322.102 85.3979L205.004 209.051L310.713 76.5432L477.775 -108.894Z" fill="#007AFF"/>
</g>
<g style="mix-blend-mode:plus-lighter" opacity="0.2" filter="url(#filter19_f_228_116)">
<path d="M477.775 -108.894L489.165 -100.039L322.102 85.3979L205.004 209.051L310.713 76.5432L477.775 -108.894Z" fill="#007AFF"/>
<path d="M477.775 -108.894L489.165 -100.039L322.102 85.3979L205.004 209.051L310.713 76.5432L477.775 -108.894Z" fill="#007AFF"/>
</g>
<g style="mix-blend-mode:plus-lighter" opacity="0.2" filter="url(#filter20_f_228_116)">
<path d="M392.086 -49.9862L403.475 -41.1314L236.413 144.306L119.314 267.959L225.023 135.451L392.086 -49.9862Z" fill="#007AFF"/>
<path d="M392.086 -49.9862L403.475 -41.1314L236.413 144.306L119.314 267.959L225.023 135.451L392.086 -49.9862Z" fill="#007AFF"/>
</g>
<g style="mix-blend-mode:plus-lighter" opacity="0.2" filter="url(#filter21_f_228_116)">
<path d="M392.086 -49.9862L403.475 -41.1314L236.413 144.306L119.314 267.959L225.023 135.451L392.086 -49.9862Z" fill="#007AFF"/>
<path d="M392.086 -49.9862L403.475 -41.1314L236.413 144.306L119.314 267.959L225.023 135.451L392.086 -49.9862Z" fill="#007AFF"/>
</g>
</g>
<g style="mix-blend-mode:plus-lighter" opacity="0.5">
<g style="mix-blend-mode:plus-lighter" opacity="0.8" filter="url(#filter22_f_228_116)">
<path d="M530.614 -185.799L542.004 -176.944L374.941 8.49309L257.843 132.146L363.552 -0.361686L530.614 -185.799Z" fill="#007AFF"/>
</g>
<g style="mix-blend-mode:plus-lighter" opacity="0.8" filter="url(#filter23_f_228_116)">
<path d="M512.683 -199.269L524.072 -190.415L357.01 -4.97761L239.911 118.675L345.62 -13.8324L512.683 -199.269Z" fill="#007AFF"/>
</g>
<g style="mix-blend-mode:plus-lighter" opacity="0.8" filter="url(#filter24_f_228_116)">
<path d="M486.269 -219.955L497.658 -211.1L330.595 -25.6627L213.497 97.9903L319.206 -34.5174L486.269 -219.955Z" fill="#007AFF"/>
</g>
<g style="mix-blend-mode:plus-lighter" opacity="0.8" filter="url(#filter25_f_228_116)">
<path d="M586.269 -198.489L597.658 -189.634L430.595 -4.19685L313.497 119.456L419.206 -13.0516L586.269 -198.489Z" fill="#007AFF"/>
</g>
<g style="mix-blend-mode:plus-lighter" opacity="0.2" filter="url(#filter26_f_228_116)">
<path d="M542.776 -188.893L554.166 -180.039L387.103 5.39837L270.005 129.051L375.714 -3.45641L542.776 -188.893Z" fill="#007AFF"/>
<path d="M542.776 -188.893L554.166 -180.039L387.103 5.39837L270.005 129.051L375.714 -3.45641L542.776 -188.893Z" fill="#007AFF"/>
</g>
<g style="mix-blend-mode:plus-lighter" opacity="0.2" filter="url(#filter27_f_228_116)">
<path d="M542.776 -188.893L554.166 -180.039L387.103 5.39837L270.005 129.051L375.714 -3.45641L542.776 -188.893Z" fill="#007AFF"/>
<path d="M542.776 -188.893L554.166 -180.039L387.103 5.39837L270.005 129.051L375.714 -3.45641L542.776 -188.893Z" fill="#007AFF"/>
</g>
<g style="mix-blend-mode:plus-lighter" opacity="0.2" filter="url(#filter28_f_228_116)">
<path d="M457.087 -129.986L468.476 -121.131L301.414 64.3061L184.315 187.959L290.024 55.4513L457.087 -129.986Z" fill="#007AFF"/>
<path d="M457.087 -129.986L468.476 -121.131L301.414 64.3061L184.315 187.959L290.024 55.4513L457.087 -129.986Z" fill="#007AFF"/>
</g>
<g style="mix-blend-mode:plus-lighter" opacity="0.2" filter="url(#filter29_f_228_116)">
<path d="M457.087 -129.986L468.476 -121.131L301.414 64.3061L184.315 187.959L290.024 55.4513L457.087 -129.986Z" fill="#007AFF"/>
<path d="M457.087 -129.986L468.476 -121.131L301.414 64.3061L184.315 187.959L290.024 55.4513L457.087 -129.986Z" fill="#007AFF"/>
</g>
</g>
<g style="mix-blend-mode:plus-lighter" opacity="0.5">
<g opacity="0.8" filter="url(#filter30_f_228_116)">
<path d="M383.326 -126.749L395.583 -119.14L248.924 82.8207L145.462 218.09L236.667 75.2114L383.326 -126.749Z" fill="#007AFF"/>
</g>
<g opacity="0.8" filter="url(#filter31_f_228_116)">
<path d="M364.079 -138.262L376.335 -130.652L229.676 71.3082L126.215 206.578L217.42 63.6988L364.079 -138.262Z" fill="#007AFF"/>
</g>
<g opacity="0.8" filter="url(#filter32_f_228_116)">
<path d="M335.639 -156.058L347.896 -148.448L201.237 53.5122L97.7755 188.782L188.98 45.9028L335.639 -156.058Z" fill="#007AFF" fill-opacity="0.15"/>
</g>
<g opacity="0.8" filter="url(#filter33_f_228_116)">
<path d="M437.34 -145.215L449.597 -137.606L302.938 64.3547L199.477 199.624L290.682 56.7454L437.34 -145.215Z" fill="#007AFF"/>
</g>
<g opacity="0.2" filter="url(#filter34_f_228_116)">
<path d="M395.096 -131.104L407.353 -123.495L260.694 78.4654L157.233 213.735L248.437 70.856L395.096 -131.104Z" fill="#007AFF"/>
</g>
<g opacity="0.2" filter="url(#filter35_f_228_116)">
<path d="M316.071 -63.5212L328.327 -55.9119L181.669 146.049L78.2071 281.318L169.412 138.439L316.071 -63.5212Z" fill="#007AFF"/>
</g>
</g>
<g opacity="0.5">
<g opacity="0.8" filter="url(#filter36_f_228_116)">
<path d="M383.326 -126.749L395.583 -119.14L248.924 82.8207L145.462 218.09L236.667 75.2114L383.326 -126.749Z" fill="#007AFF"/>
</g>
<g opacity="0.8" filter="url(#filter37_f_228_116)">
<path d="M364.079 -138.262L376.335 -130.652L229.676 71.3082L126.215 206.578L217.42 63.6988L364.079 -138.262Z" fill="#007AFF"/>
</g>
<g opacity="0.8" filter="url(#filter38_f_228_116)">
<path d="M335.639 -156.058L347.896 -148.448L201.237 53.5122L97.7755 188.782L188.98 45.9028L335.639 -156.058Z" fill="#007AFF" fill-opacity="0.15"/>
</g>
<g opacity="0.8" filter="url(#filter39_f_228_116)">
<path d="M437.34 -145.215L449.597 -137.606L302.938 64.3547L199.477 199.624L290.682 56.7454L437.34 -145.215Z" fill="#007AFF"/>
</g>
<g opacity="0.2" filter="url(#filter40_f_228_116)">
<path d="M395.096 -131.104L407.353 -123.495L260.694 78.4654L157.233 213.735L248.437 70.856L395.096 -131.104Z" fill="#007AFF"/>
</g>
<g opacity="0.2" filter="url(#filter41_f_228_116)">
<path d="M316.071 -63.5212L328.327 -55.9119L181.669 146.049L78.2071 281.318L169.412 138.439L316.071 -63.5212Z" fill="#007AFF"/>
</g>
</g>
<g opacity="0.5">
<g opacity="0.8" filter="url(#filter42_f_228_116)">
<path d="M537.572 16.5117L545.87 28.3131L331.836 156.713L183.666 240.664L323.538 144.911L537.572 16.5117Z" fill="#007AFF"/>
</g>
<g opacity="0.8" filter="url(#filter43_f_228_116)">
<path d="M524.369 -1.61865L532.667 10.1827L318.633 138.582L170.463 222.534L310.335 126.781L524.369 -1.61865Z" fill="url(#paint6_linear_228_116)"/>
</g>
<g opacity="0.8" filter="url(#filter44_f_228_116)">
<path d="M505.169 -29.1304L513.467 -17.329L299.434 111.071L151.264 195.022L291.136 99.2694L505.169 -29.1304Z" fill="#007AFF"/>
</g>
<g opacity="0.8" filter="url(#filter45_f_228_116)">
<path d="M594.501 20.6721L602.799 32.4735L388.766 160.873L240.596 244.824L380.468 149.072L594.501 20.6721Z" fill="#007AFF"/>
</g>
<g opacity="0.2" filter="url(#filter46_f_228_116)">
<path d="M550.107 17.1136L558.405 28.915L344.371 157.315L196.201 241.266L336.074 145.513L550.107 17.1136Z" fill="url(#paint7_linear_228_116)"/>
</g>
<g opacity="0.2" filter="url(#filter47_f_228_116)">
<path d="M450.927 48.3527L459.225 60.154L245.192 188.554L97.0218 272.505L236.894 176.752L450.927 48.3527Z" fill="url(#paint8_linear_228_116)"/>
</g>
</g>
<g opacity="0.5">
<g opacity="0.8" filter="url(#filter48_f_228_116)">
<path d="M537.572 16.5115L545.87 28.3128L331.836 156.713L183.666 240.664L323.538 144.911L537.572 16.5115Z" fill="url(#paint9_linear_228_116)"/>
</g>
<g opacity="0.8" filter="url(#filter49_f_228_116)">
<path d="M524.369 -1.6189L532.667 10.1824L318.633 138.582L170.463 222.533L310.335 126.781L524.369 -1.6189Z" fill="url(#paint10_linear_228_116)"/>
</g>
<g opacity="0.8" filter="url(#filter50_f_228_116)">
<path d="M505.169 -29.1306L513.467 -17.3293L299.434 111.07L151.264 195.022L291.136 99.2691L505.169 -29.1306Z" fill="url(#paint11_linear_228_116)"/>
</g>
<g opacity="0.8" filter="url(#filter51_f_228_116)">
<path d="M594.501 20.6719L602.799 32.4732L388.766 160.873L240.596 244.824L380.468 149.072L594.501 20.6719Z" fill="url(#paint12_linear_228_116)"/>
</g>
<g opacity="0.2" filter="url(#filter52_f_228_116)">
<path d="M550.107 17.1134L558.405 28.9147L344.371 157.314L196.201 241.266L336.074 145.513L550.107 17.1134Z" fill="url(#paint13_linear_228_116)"/>
</g>
<g opacity="0.2" filter="url(#filter53_f_228_116)">
<path d="M450.927 48.3524L459.225 60.1538L245.192 188.553L97.0218 272.505L236.894 176.752L450.927 48.3524Z" fill="url(#paint14_linear_228_116)"/>
</g>
</g>
<g style="mix-blend-mode:plus-lighter" opacity="0.5">
<path opacity="0.5" d="M323.47 51.5231C322.585 51.2366 322.524 50.0785 323.376 49.706C323.562 49.6268 323.761 49.6169 323.955 49.6774C324.85 49.9534 324.901 51.122 324.05 51.4945C323.864 51.5737 323.664 51.5836 323.47 51.5231Z" fill="white"/>
<path opacity="0.5" d="M264.71 139.419C263.824 139.132 263.764 137.974 264.615 137.602C264.802 137.522 265.001 137.513 265.195 137.573C266.09 137.849 266.141 139.018 265.289 139.39C265.103 139.469 264.904 139.479 264.71 139.419Z" fill="white"/>
<path opacity="0.5" d="M294.253 104.688C293.367 104.402 293.307 103.243 294.158 102.871C294.345 102.792 294.544 102.782 294.738 102.842C295.633 103.118 295.684 104.287 294.832 104.659C294.646 104.739 294.447 104.749 294.253 104.688Z" fill="white"/>
<path opacity="0.5" d="M253.66 120.721C252.775 120.435 252.714 119.277 253.566 118.904C253.752 118.825 253.951 118.815 254.145 118.875C255.04 119.151 255.091 120.32 254.24 120.693C254.054 120.772 253.854 120.782 253.66 120.721Z" fill="white"/>
<path opacity="0.5" d="M278.016 90.9986C277.13 90.7121 277.07 89.554 277.921 89.1815C278.107 89.1022 278.307 89.0923 278.5 89.1528C279.396 89.4288 279.447 90.5974 278.595 90.9699C278.409 91.0492 278.209 91.0591 278.016 90.9986Z" fill="white"/>
<path opacity="0.5" d="M302.91 73.0514C302.025 72.765 301.964 71.6068 302.816 71.2344C303.002 71.1551 303.201 71.1452 303.395 71.2057C304.29 71.4817 304.341 72.6503 303.49 73.0228C303.304 73.1021 303.104 73.1119 302.91 73.0514Z" fill="white"/>
<path opacity="0.5" d="M228.058 163.627C227.172 163.34 227.112 162.182 227.963 161.81C228.149 161.73 228.349 161.721 228.542 161.781C229.438 162.057 229.489 163.226 228.637 163.598C228.451 163.677 228.251 163.687 228.058 163.627Z" fill="white"/>
<path opacity="0.5" d="M330.422 61.491C329.536 61.2045 329.476 60.0464 330.327 59.6739C330.513 59.5947 330.713 59.5848 330.906 59.6453C331.802 59.9213 331.853 61.0899 331.001 61.4624C330.815 61.5416 330.616 61.5515 330.422 61.491Z" fill="white"/>
<path d="M323.229 82.2466C322.343 81.9601 322.282 80.802 323.134 80.4295C323.32 80.3502 323.52 80.3403 323.713 80.4008C324.609 80.6768 324.659 81.8454 323.808 82.2179C323.622 82.2972 323.422 82.307 323.229 82.2466Z" fill="white"/>
<path d="M348.122 64.2994C347.236 64.0129 347.176 62.8548 348.028 62.4823C348.214 62.4031 348.413 62.3932 348.607 62.4537C349.502 62.7297 349.553 63.8983 348.701 64.2708C348.515 64.35 348.316 64.3599 348.122 64.2994Z" fill="white"/>
<path d="M279.619 112.594C278.733 112.308 278.673 111.15 279.524 110.777C279.71 110.698 279.91 110.688 280.103 110.748C280.999 111.024 281.05 112.193 280.198 112.566C280.012 112.645 279.812 112.655 279.619 112.594Z" fill="white"/>
<path d="M344.523 45.609C343.637 45.3225 343.576 44.1644 344.428 43.7919C344.614 43.7126 344.814 43.7028 345.007 43.7633C345.902 44.0392 345.953 45.2079 345.102 45.5803C344.916 45.6596 344.716 45.6695 344.523 45.609Z" fill="white"/>
<path opacity="0.5" d="M296.109 28.5254C295.223 28.239 295.162 27.0808 296.014 26.7084C296.2 26.6291 296.4 26.6192 296.593 26.6797C297.488 26.9557 297.539 28.1243 296.688 28.4968C296.502 28.5761 296.302 28.5859 296.109 28.5254Z" fill="white"/>
<path d="M337.889 31.0651C337.003 30.7786 336.943 29.6205 337.794 29.248C337.98 29.1687 338.18 29.1589 338.373 29.2194C339.269 29.4954 339.32 30.664 338.468 31.0365C338.282 31.1157 338.082 31.1256 337.889 31.0651Z" fill="white"/>
<path opacity="0.5" d="M234.321 100.944C233.435 100.657 233.375 99.4993 234.226 99.1268C234.412 99.0475 234.612 99.0377 234.805 99.0982C235.701 99.3741 235.752 100.543 234.9 100.915C234.714 100.995 234.514 101.004 234.321 100.944Z" fill="white"/>
<path opacity="0.5" d="M286.73 71.4356C285.844 71.1492 285.783 69.991 286.635 69.6186C286.821 69.5393 287.021 69.5294 287.214 69.5899C288.109 69.8659 288.16 71.0345 287.309 71.407C287.123 71.4863 286.923 71.4961 286.73 71.4356Z" fill="white"/>
<path opacity="0.5" d="M311.623 53.4884C310.737 53.2019 310.677 52.0438 311.529 51.6713C311.715 51.592 311.914 51.5822 312.108 51.6427C313.003 51.9186 313.054 53.0873 312.202 53.4597C312.016 53.539 311.817 53.5489 311.623 53.4884Z" fill="white"/>
<path opacity="0.5" d="M236.77 144.064C235.884 143.778 235.824 142.62 236.675 142.247C236.861 142.168 237.061 142.158 237.254 142.219C238.15 142.495 238.2 143.663 237.349 144.036C237.163 144.115 236.963 144.125 236.77 144.064Z" fill="white"/>
<path opacity="0.5" d="M333.367 76.9397C332.482 76.6532 332.421 75.4951 333.273 75.1226C333.459 75.0433 333.658 75.0334 333.852 75.0939C334.747 75.3699 334.798 76.5385 333.947 76.911C333.761 76.9903 333.561 77.0002 333.367 76.9397Z" fill="white"/>
<path d="M161.627 201.6C160.741 201.314 160.681 200.156 161.532 199.783C161.719 199.704 161.918 199.694 162.112 199.754C163.007 200.03 163.058 201.199 162.206 201.572C162.02 201.651 161.821 201.661 161.627 201.6Z" fill="white"/>
<path d="M329.222 23.9822C328.429 23.4933 328.646 22.3541 329.562 22.1948C329.761 22.162 329.958 22.1999 330.131 22.3046C330.935 22.7856 330.707 23.9328 329.791 24.0921C329.591 24.1249 329.395 24.087 329.222 23.9822Z" fill="white"/>
<path d="M262.626 64.054C261.74 63.7675 261.68 62.6094 262.531 62.2369C262.718 62.1576 262.917 62.1478 263.111 62.2083C264.006 62.4842 264.057 63.6529 263.205 64.0253C263.019 64.1046 262.82 64.1145 262.626 64.054Z" fill="white"/>
<path d="M315.033 34.5467C314.147 34.2603 314.086 33.1021 314.938 32.7297C315.124 32.6504 315.323 32.6405 315.517 32.701C316.412 32.977 316.463 34.1456 315.612 34.5181C315.426 34.5974 315.226 34.6072 315.033 34.5467Z" fill="white"/>
<path d="M247.707 150.319C246.915 149.83 247.131 148.691 248.047 148.531C248.247 148.499 248.443 148.536 248.616 148.641C249.42 149.122 249.192 150.269 248.276 150.429C248.077 150.461 247.88 150.424 247.707 150.319Z" fill="white"/>
<path d="M219.043 119.569C218.157 119.283 218.096 118.125 218.948 117.752C219.134 117.673 219.334 117.663 219.527 117.724C220.422 118 220.473 119.168 219.622 119.541C219.436 119.62 219.236 119.63 219.043 119.569Z" fill="white"/>
<path d="M271.004 94.0711C270.118 93.7847 270.058 92.6265 270.909 92.2541C271.095 92.1748 271.295 92.1649 271.489 92.2254C272.384 92.5014 272.435 93.67 271.583 94.0425C271.397 94.1218 271.198 94.1316 271.004 94.0711Z" fill="white"/>
<path d="M207.775 170.966C206.889 170.68 206.828 169.521 207.68 169.149C207.866 169.07 208.066 169.06 208.259 169.12C209.154 169.396 209.205 170.565 208.354 170.937C208.168 171.017 207.968 171.026 207.775 170.966Z" fill="white"/>
<path d="M169.525 172.798C168.639 172.512 168.578 171.353 169.43 170.981C169.616 170.902 169.816 170.892 170.009 170.952C170.904 171.228 170.955 172.397 170.104 172.769C169.918 172.849 169.718 172.859 169.525 172.798Z" fill="white"/>
<path d="M268.712 104.14C267.826 103.853 267.766 102.695 268.617 102.323C268.803 102.243 269.003 102.234 269.197 102.294C270.092 102.57 270.143 103.739 269.291 104.111C269.105 104.19 268.906 104.2 268.712 104.14Z" fill="white"/>
<path d="M192.175 183.755C191.289 183.469 191.229 182.31 192.08 181.938C192.266 181.859 192.466 181.849 192.659 181.909C193.555 182.185 193.606 183.354 192.754 183.726C192.568 183.806 192.368 183.815 192.175 183.755Z" fill="white"/>
<path d="M321.118 74.6321C320.233 74.3456 320.172 73.1875 321.024 72.815C321.21 72.7358 321.409 72.7259 321.603 72.7864C322.498 73.0624 322.549 74.231 321.698 74.6035C321.512 74.6827 321.312 74.6926 321.118 74.6321Z" fill="white"/>
<path d="M346.015 56.6856C345.129 56.3992 345.069 55.241 345.92 54.8686C346.106 54.7893 346.306 54.7794 346.499 54.8399C347.395 55.1159 347.446 56.2845 346.594 56.657C346.408 56.7363 346.208 56.7461 346.015 56.6856Z" fill="white"/>
<path d="M273.53 126.227C272.644 125.941 272.583 124.783 273.435 124.41C273.621 124.331 273.821 124.321 274.014 124.381C274.909 124.657 274.96 125.826 274.109 126.198C273.923 126.278 273.723 126.288 273.53 126.227Z" fill="white"/>
<path d="M196.361 156.535C195.475 156.248 195.414 155.09 196.266 154.718C196.452 154.638 196.652 154.629 196.845 154.689C197.74 154.965 197.791 156.134 196.94 156.506C196.754 156.585 196.554 156.595 196.361 156.535Z" fill="white"/>
<path d="M251.445 95.2307C250.559 94.9443 250.498 93.7862 251.35 93.4137C251.536 93.3344 251.736 93.3245 251.929 93.385C252.824 93.661 252.875 94.8296 252.024 95.2021C251.838 95.2814 251.638 95.2912 251.445 95.2307Z" fill="white"/>
<path d="M300.594 66.1731C299.708 65.8867 299.648 64.7285 300.499 64.3561C300.685 64.2768 300.885 64.2669 301.078 64.3274C301.974 64.6034 302.025 65.772 301.173 66.1445C300.987 66.2238 300.787 66.2336 300.594 66.1731Z" fill="white"/>
<path opacity="0.5" d="M299.976 114.271C299.09 113.984 299.03 112.826 299.881 112.454C300.067 112.374 300.267 112.365 300.46 112.425C301.356 112.701 301.407 113.87 300.555 114.242C300.369 114.321 300.169 114.331 299.976 114.271Z" fill="white"/>
<path opacity="0.5" d="M236.518 125.083C235.632 124.796 235.572 123.638 236.423 123.266C236.609 123.187 236.809 123.177 237.002 123.237C237.898 123.513 237.949 124.682 237.097 125.054C236.911 125.133 236.711 125.143 236.518 125.083Z" fill="white"/>
<path opacity="0.5" d="M300.253 92.3268C299.367 92.0404 299.307 90.8822 300.158 90.5097C300.345 90.4305 300.544 90.4206 300.738 90.4811C301.633 90.7571 301.684 91.9257 300.832 92.2982C300.646 92.3775 300.447 92.3873 300.253 92.3268Z" fill="white"/>
<path d="M273.447 70.9534C272.561 70.6669 272.5 69.5088 273.352 69.1363C273.538 69.0571 273.738 69.0472 273.931 69.1077C274.826 69.3837 274.877 70.5523 274.026 70.9248C273.84 71.004 273.64 71.0139 273.447 70.9534Z" fill="white"/>
<path d="M207.938 141.513C207.052 141.227 206.992 140.068 207.843 139.696C208.03 139.617 208.229 139.607 208.423 139.667C209.318 139.943 209.369 141.112 208.517 141.484C208.331 141.564 208.132 141.573 207.938 141.513Z" fill="white"/>
<path d="M325.853 41.4458C324.967 41.1594 324.907 40.0012 325.758 39.6288C325.944 39.5495 326.144 39.5396 326.337 39.6001C327.233 39.8761 327.283 41.0447 326.432 41.4172C326.246 41.4965 326.046 41.5063 325.853 41.4458Z" fill="white"/>
<path d="M356.304 30.6101C355.418 30.3236 355.357 29.1655 356.209 28.793C356.395 28.7137 356.594 28.7039 356.788 28.7644C357.683 29.0403 357.734 30.209 356.883 30.5814C356.697 30.6607 356.497 30.6706 356.304 30.6101Z" fill="white"/>
<path opacity="0.5" d="M255.35 130.043C254.464 129.756 254.404 128.598 255.255 128.226C255.441 128.147 255.641 128.137 255.834 128.197C256.73 128.473 256.781 129.642 255.929 130.014C255.743 130.094 255.543 130.103 255.35 130.043Z" fill="white"/>
<path opacity="0.5" d="M307.756 100.536C306.87 100.25 306.809 99.0917 307.661 98.7192C307.847 98.6399 308.047 98.6301 308.24 98.6906C309.135 98.9665 309.186 100.135 308.335 100.508C308.149 100.587 307.949 100.597 307.756 100.536Z" fill="white"/>
<path opacity="0.5" d="M244.298 111.347C243.412 111.061 243.352 109.903 244.203 109.53C244.389 109.451 244.589 109.441 244.782 109.502C245.678 109.778 245.729 110.946 244.877 111.319C244.691 111.398 244.492 111.408 244.298 111.347Z" fill="white"/>
<path opacity="0.5" d="M283.35 60.42C282.464 60.1336 282.404 58.9754 283.255 58.6029C283.441 58.5237 283.641 58.5138 283.834 58.5743C284.73 58.8503 284.781 60.0189 283.929 60.3914C283.743 60.4707 283.543 60.4805 283.35 60.42Z" fill="white"/>
<path d="M185.891 200.906C185.005 200.62 184.945 199.462 185.796 199.089C185.982 199.01 186.182 199 186.375 199.06C187.271 199.336 187.322 200.505 186.47 200.877C186.284 200.957 186.084 200.967 185.891 200.906Z" fill="white"/>
<path d="M255.261 77.5974C254.375 77.3109 254.315 76.1528 255.166 75.7803C255.352 75.701 255.552 75.6912 255.745 75.7517C256.641 76.0276 256.692 77.1963 255.84 77.5687C255.654 77.648 255.454 77.6579 255.261 77.5974Z" fill="white"/>
<path d="M297.852 42.2722C296.966 41.9858 296.906 40.8277 297.757 40.4552C297.943 40.3759 298.143 40.366 298.336 40.4265C299.232 40.7025 299.283 41.8711 298.431 42.2436C298.245 42.3229 298.045 42.3327 297.852 42.2722Z" fill="white"/>
</g>
<defs>
<filter id="filter0_f_228_116" x="119.392" y="-179.249" width="431.061" height="464.844" filterUnits="userSpaceOnUse" color-interpolation-filters="sRGB">
<feFlood flood-opacity="0" result="BackgroundImageFix"/>
<feBlend mode="normal" in="SourceGraphic" in2="BackgroundImageFix" result="shape"/>
<feGaussianBlur stdDeviation="36.7249" result="effect1_foregroundBlur_228_116"/>
</filter>
<filter id="filter1_f_228_116" x="101.46" y="-192.72" width="431.061" height="464.844" filterUnits="userSpaceOnUse" color-interpolation-filters="sRGB">
<feFlood flood-opacity="0" result="BackgroundImageFix"/>
<feBlend mode="normal" in="SourceGraphic" in2="BackgroundImageFix" result="shape"/>
<feGaussianBlur stdDeviation="36.7249" result="effect1_foregroundBlur_228_116"/>
</filter>
<filter id="filter2_f_228_116" x="75.0463" y="-213.405" width="431.061" height="464.844" filterUnits="userSpaceOnUse" color-interpolation-filters="sRGB">
<feFlood flood-opacity="0" result="BackgroundImageFix"/>
<feBlend mode="normal" in="SourceGraphic" in2="BackgroundImageFix" result="shape"/>
<feGaussianBlur stdDeviation="36.7249" result="effect1_foregroundBlur_228_116"/>
</filter>
<filter id="filter3_f_228_116" x="175.046" y="-191.939" width="431.061" height="464.844" filterUnits="userSpaceOnUse" color-interpolation-filters="sRGB">
<feFlood flood-opacity="0" result="BackgroundImageFix"/>
<feBlend mode="normal" in="SourceGraphic" in2="BackgroundImageFix" result="shape"/>
<feGaussianBlur stdDeviation="36.7249" result="effect1_foregroundBlur_228_116"/>
</filter>
<filter id="filter4_f_228_116" x="163.218" y="-150.68" width="367.732" height="401.516" filterUnits="userSpaceOnUse" color-interpolation-filters="sRGB">
<feFlood flood-opacity="0" result="BackgroundImageFix"/>
<feBlend mode="normal" in="SourceGraphic" in2="BackgroundImageFix" result="shape"/>
<feGaussianBlur stdDeviation="20.8928" result="effect1_foregroundBlur_228_116"/>
</filter>
<filter id="filter5_f_228_116" x="163.218" y="-150.68" width="367.732" height="401.516" filterUnits="userSpaceOnUse" color-interpolation-filters="sRGB">
<feFlood flood-opacity="0" result="BackgroundImageFix"/>
<feBlend mode="normal" in="SourceGraphic" in2="BackgroundImageFix" result="shape"/>
<feGaussianBlur stdDeviation="20.8928" result="effect1_foregroundBlur_228_116"/>
</filter>
<filter id="filter6_f_228_116" x="77.5288" y="-91.7719" width="367.732" height="401.516" filterUnits="userSpaceOnUse" color-interpolation-filters="sRGB">
<feFlood flood-opacity="0" result="BackgroundImageFix"/>
<feBlend mode="normal" in="SourceGraphic" in2="BackgroundImageFix" result="shape"/>
<feGaussianBlur stdDeviation="20.8928" result="effect1_foregroundBlur_228_116"/>
</filter>
<filter id="filter7_f_228_116" x="77.5288" y="-91.7719" width="367.732" height="401.516" filterUnits="userSpaceOnUse" color-interpolation-filters="sRGB">
<feFlood flood-opacity="0" result="BackgroundImageFix"/>
<feBlend mode="normal" in="SourceGraphic" in2="BackgroundImageFix" result="shape"/>
<feGaussianBlur stdDeviation="20.8928" result="effect1_foregroundBlur_228_116"/>
</filter>
<filter id="filter8_f_228_116" x="44.392" y="-89.2491" width="431.061" height="464.844" filterUnits="userSpaceOnUse" color-interpolation-filters="sRGB">
<feFlood flood-opacity="0" result="BackgroundImageFix"/>
<feBlend mode="normal" in="SourceGraphic" in2="BackgroundImageFix" result="shape"/>
<feGaussianBlur stdDeviation="36.7249" result="effect1_foregroundBlur_228_116"/>
</filter>
<filter id="filter9_f_228_116" x="26.4604" y="-102.72" width="431.061" height="464.844" filterUnits="userSpaceOnUse" color-interpolation-filters="sRGB">
<feFlood flood-opacity="0" result="BackgroundImageFix"/>
<feBlend mode="normal" in="SourceGraphic" in2="BackgroundImageFix" result="shape"/>
<feGaussianBlur stdDeviation="36.7249" result="effect1_foregroundBlur_228_116"/>
</filter>
<filter id="filter10_f_228_116" x="0.0463181" y="-123.405" width="431.061" height="464.844" filterUnits="userSpaceOnUse" color-interpolation-filters="sRGB">
<feFlood flood-opacity="0" result="BackgroundImageFix"/>
<feBlend mode="normal" in="SourceGraphic" in2="BackgroundImageFix" result="shape"/>
<feGaussianBlur stdDeviation="36.7249" result="effect1_foregroundBlur_228_116"/>
</filter>
<filter id="filter11_f_228_116" x="100.046" y="-101.939" width="431.061" height="464.844" filterUnits="userSpaceOnUse" color-interpolation-filters="sRGB">
<feFlood flood-opacity="0" result="BackgroundImageFix"/>
<feBlend mode="normal" in="SourceGraphic" in2="BackgroundImageFix" result="shape"/>
<feGaussianBlur stdDeviation="36.7249" result="effect1_foregroundBlur_228_116"/>
</filter>
<filter id="filter12_f_228_116" x="88.2182" y="-60.6797" width="367.732" height="401.516" filterUnits="userSpaceOnUse" color-interpolation-filters="sRGB">
<feFlood flood-opacity="0" result="BackgroundImageFix"/>
<feBlend mode="normal" in="SourceGraphic" in2="BackgroundImageFix" result="shape"/>
<feGaussianBlur stdDeviation="20.8928" result="effect1_foregroundBlur_228_116"/>
</filter>
<filter id="filter13_f_228_116" x="2.52877" y="-1.77201" width="367.732" height="401.516" filterUnits="userSpaceOnUse" color-interpolation-filters="sRGB">
<feFlood flood-opacity="0" result="BackgroundImageFix"/>
<feBlend mode="normal" in="SourceGraphic" in2="BackgroundImageFix" result="shape"/>
<feGaussianBlur stdDeviation="20.8928" result="effect1_foregroundBlur_228_116"/>
</filter>
<filter id="filter14_f_228_116" x="119.392" y="-179.249" width="431.061" height="464.844" filterUnits="userSpaceOnUse" color-interpolation-filters="sRGB">
<feFlood flood-opacity="0" result="BackgroundImageFix"/>
<feBlend mode="normal" in="SourceGraphic" in2="BackgroundImageFix" result="shape"/>
<feGaussianBlur stdDeviation="36.7249" result="effect1_foregroundBlur_228_116"/>
</filter>
<filter id="filter15_f_228_116" x="101.46" y="-192.72" width="431.061" height="464.844" filterUnits="userSpaceOnUse" color-interpolation-filters="sRGB">
<feFlood flood-opacity="0" result="BackgroundImageFix"/>
<feBlend mode="normal" in="SourceGraphic" in2="BackgroundImageFix" result="shape"/>
<feGaussianBlur stdDeviation="36.7249" result="effect1_foregroundBlur_228_116"/>
</filter>
<filter id="filter16_f_228_116" x="75.0463" y="-213.405" width="431.061" height="464.844" filterUnits="userSpaceOnUse" color-interpolation-filters="sRGB">
<feFlood flood-opacity="0" result="BackgroundImageFix"/>
<feBlend mode="normal" in="SourceGraphic" in2="BackgroundImageFix" result="shape"/>
<feGaussianBlur stdDeviation="36.7249" result="effect1_foregroundBlur_228_116"/>
</filter>
<filter id="filter17_f_228_116" x="175.046" y="-191.939" width="431.061" height="464.844" filterUnits="userSpaceOnUse" color-interpolation-filters="sRGB">
<feFlood flood-opacity="0" result="BackgroundImageFix"/>
<feBlend mode="normal" in="SourceGraphic" in2="BackgroundImageFix" result="shape"/>
<feGaussianBlur stdDeviation="36.7249" result="effect1_foregroundBlur_228_116"/>
</filter>
<filter id="filter18_f_228_116" x="163.218" y="-150.68" width="367.732" height="401.516" filterUnits="userSpaceOnUse" color-interpolation-filters="sRGB">
<feFlood flood-opacity="0" result="BackgroundImageFix"/>
<feBlend mode="normal" in="SourceGraphic" in2="BackgroundImageFix" result="shape"/>
<feGaussianBlur stdDeviation="20.8928" result="effect1_foregroundBlur_228_116"/>
</filter>
<filter id="filter19_f_228_116" x="163.218" y="-150.68" width="367.732" height="401.516" filterUnits="userSpaceOnUse" color-interpolation-filters="sRGB">
<feFlood flood-opacity="0" result="BackgroundImageFix"/>
<feBlend mode="normal" in="SourceGraphic" in2="BackgroundImageFix" result="shape"/>
<feGaussianBlur stdDeviation="20.8928" result="effect1_foregroundBlur_228_116"/>
</filter>
<filter id="filter20_f_228_116" x="77.5288" y="-91.7719" width="367.732" height="401.516" filterUnits="userSpaceOnUse" color-interpolation-filters="sRGB">
<feFlood flood-opacity="0" result="BackgroundImageFix"/>
<feBlend mode="normal" in="SourceGraphic" in2="BackgroundImageFix" result="shape"/>
<feGaussianBlur stdDeviation="20.8928" result="effect1_foregroundBlur_228_116"/>
</filter>
<filter id="filter21_f_228_116" x="77.5288" y="-91.7719" width="367.732" height="401.516" filterUnits="userSpaceOnUse" color-interpolation-filters="sRGB">
<feFlood flood-opacity="0" result="BackgroundImageFix"/>
<feBlend mode="normal" in="SourceGraphic" in2="BackgroundImageFix" result="shape"/>
<feGaussianBlur stdDeviation="20.8928" result="effect1_foregroundBlur_228_116"/>
</filter>
<filter id="filter22_f_228_116" x="184.393" y="-259.249" width="431.061" height="464.844" filterUnits="userSpaceOnUse" color-interpolation-filters="sRGB">
<feFlood flood-opacity="0" result="BackgroundImageFix"/>
<feBlend mode="normal" in="SourceGraphic" in2="BackgroundImageFix" result="shape"/>
<feGaussianBlur stdDeviation="36.7249" result="effect1_foregroundBlur_228_116"/>
</filter>
<filter id="filter23_f_228_116" x="166.461" y="-272.719" width="431.061" height="464.844" filterUnits="userSpaceOnUse" color-interpolation-filters="sRGB">
<feFlood flood-opacity="0" result="BackgroundImageFix"/>
<feBlend mode="normal" in="SourceGraphic" in2="BackgroundImageFix" result="shape"/>
<feGaussianBlur stdDeviation="36.7249" result="effect1_foregroundBlur_228_116"/>
</filter>
<filter id="filter24_f_228_116" x="140.047" y="-293.404" width="431.061" height="464.844" filterUnits="userSpaceOnUse" color-interpolation-filters="sRGB">
<feFlood flood-opacity="0" result="BackgroundImageFix"/>
<feBlend mode="normal" in="SourceGraphic" in2="BackgroundImageFix" result="shape"/>
<feGaussianBlur stdDeviation="36.7249" result="effect1_foregroundBlur_228_116"/>
</filter>
<filter id="filter25_f_228_116" x="240.047" y="-271.938" width="431.061" height="464.844" filterUnits="userSpaceOnUse" color-interpolation-filters="sRGB">
<feFlood flood-opacity="0" result="BackgroundImageFix"/>
<feBlend mode="normal" in="SourceGraphic" in2="BackgroundImageFix" result="shape"/>
<feGaussianBlur stdDeviation="36.7249" result="effect1_foregroundBlur_228_116"/>
</filter>
<filter id="filter26_f_228_116" x="228.219" y="-230.679" width="367.732" height="401.516" filterUnits="userSpaceOnUse" color-interpolation-filters="sRGB">
<feFlood flood-opacity="0" result="BackgroundImageFix"/>
<feBlend mode="normal" in="SourceGraphic" in2="BackgroundImageFix" result="shape"/>
<feGaussianBlur stdDeviation="20.8928" result="effect1_foregroundBlur_228_116"/>
</filter>
<filter id="filter27_f_228_116" x="228.219" y="-230.679" width="367.732" height="401.516" filterUnits="userSpaceOnUse" color-interpolation-filters="sRGB">
<feFlood flood-opacity="0" result="BackgroundImageFix"/>
<feBlend mode="normal" in="SourceGraphic" in2="BackgroundImageFix" result="shape"/>
<feGaussianBlur stdDeviation="20.8928" result="effect1_foregroundBlur_228_116"/>
</filter>
<filter id="filter28_f_228_116" x="142.53" y="-171.771" width="367.732" height="401.516" filterUnits="userSpaceOnUse" color-interpolation-filters="sRGB">
<feFlood flood-opacity="0" result="BackgroundImageFix"/>
<feBlend mode="normal" in="SourceGraphic" in2="BackgroundImageFix" result="shape"/>
<feGaussianBlur stdDeviation="20.8928" result="effect1_foregroundBlur_228_116"/>
</filter>
<filter id="filter29_f_228_116" x="142.53" y="-171.771" width="367.732" height="401.516" filterUnits="userSpaceOnUse" color-interpolation-filters="sRGB">
<feFlood flood-opacity="0" result="BackgroundImageFix"/>
<feBlend mode="normal" in="SourceGraphic" in2="BackgroundImageFix" result="shape"/>
<feGaussianBlur stdDeviation="20.8928" result="effect1_foregroundBlur_228_116"/>
</filter>
<filter id="filter30_f_228_116" x="72.0126" y="-200.199" width="397.02" height="491.739" filterUnits="userSpaceOnUse" color-interpolation-filters="sRGB">
<feFlood flood-opacity="0" result="BackgroundImageFix"/>
<feBlend mode="normal" in="SourceGraphic" in2="BackgroundImageFix" result="shape"/>
<feGaussianBlur stdDeviation="36.7249" result="effect1_foregroundBlur_228_116"/>
</filter>
<filter id="filter31_f_228_116" x="52.7651" y="-211.711" width="397.02" height="491.739" filterUnits="userSpaceOnUse" color-interpolation-filters="sRGB">
<feFlood flood-opacity="0" result="BackgroundImageFix"/>
<feBlend mode="normal" in="SourceGraphic" in2="BackgroundImageFix" result="shape"/>
<feGaussianBlur stdDeviation="36.7249" result="effect1_foregroundBlur_228_116"/>
</filter>
<filter id="filter32_f_228_116" x="24.3256" y="-229.507" width="397.02" height="491.739" filterUnits="userSpaceOnUse" color-interpolation-filters="sRGB">
<feFlood flood-opacity="0" result="BackgroundImageFix"/>
<feBlend mode="normal" in="SourceGraphic" in2="BackgroundImageFix" result="shape"/>
<feGaussianBlur stdDeviation="36.7249" result="effect1_foregroundBlur_228_116"/>
</filter>
<filter id="filter33_f_228_116" x="126.027" y="-218.665" width="397.02" height="491.739" filterUnits="userSpaceOnUse" color-interpolation-filters="sRGB">
<feFlood flood-opacity="0" result="BackgroundImageFix"/>
<feBlend mode="normal" in="SourceGraphic" in2="BackgroundImageFix" result="shape"/>
<feGaussianBlur stdDeviation="36.7249" result="effect1_foregroundBlur_228_116"/>
</filter>
<filter id="filter34_f_228_116" x="115.447" y="-172.89" width="333.692" height="428.411" filterUnits="userSpaceOnUse" color-interpolation-filters="sRGB">
<feFlood flood-opacity="0" result="BackgroundImageFix"/>
<feBlend mode="normal" in="SourceGraphic" in2="BackgroundImageFix" result="shape"/>
<feGaussianBlur stdDeviation="20.8928" result="effect1_foregroundBlur_228_116"/>
</filter>
<filter id="filter35_f_228_116" x="36.4214" y="-105.307" width="333.692" height="428.411" filterUnits="userSpaceOnUse" color-interpolation-filters="sRGB">
<feFlood flood-opacity="0" result="BackgroundImageFix"/>
<feBlend mode="normal" in="SourceGraphic" in2="BackgroundImageFix" result="shape"/>
<feGaussianBlur stdDeviation="20.8928" result="effect1_foregroundBlur_228_116"/>
</filter>
<filter id="filter36_f_228_116" x="72.0126" y="-200.199" width="397.02" height="491.739" filterUnits="userSpaceOnUse" color-interpolation-filters="sRGB">
<feFlood flood-opacity="0" result="BackgroundImageFix"/>
<feBlend mode="normal" in="SourceGraphic" in2="BackgroundImageFix" result="shape"/>
<feGaussianBlur stdDeviation="36.7249" result="effect1_foregroundBlur_228_116"/>
</filter>
<filter id="filter37_f_228_116" x="52.7651" y="-211.711" width="397.02" height="491.739" filterUnits="userSpaceOnUse" color-interpolation-filters="sRGB">
<feFlood flood-opacity="0" result="BackgroundImageFix"/>
<feBlend mode="normal" in="SourceGraphic" in2="BackgroundImageFix" result="shape"/>
<feGaussianBlur stdDeviation="36.7249" result="effect1_foregroundBlur_228_116"/>
</filter>
<filter id="filter38_f_228_116" x="24.3256" y="-229.507" width="397.02" height="491.739" filterUnits="userSpaceOnUse" color-interpolation-filters="sRGB">
<feFlood flood-opacity="0" result="BackgroundImageFix"/>
<feBlend mode="normal" in="SourceGraphic" in2="BackgroundImageFix" result="shape"/>
<feGaussianBlur stdDeviation="36.7249" result="effect1_foregroundBlur_228_116"/>
</filter>
<filter id="filter39_f_228_116" x="126.027" y="-218.665" width="397.02" height="491.739" filterUnits="userSpaceOnUse" color-interpolation-filters="sRGB">
<feFlood flood-opacity="0" result="BackgroundImageFix"/>
<feBlend mode="normal" in="SourceGraphic" in2="BackgroundImageFix" result="shape"/>
<feGaussianBlur stdDeviation="36.7249" result="effect1_foregroundBlur_228_116"/>
</filter>
<filter id="filter40_f_228_116" x="115.447" y="-172.89" width="333.692" height="428.411" filterUnits="userSpaceOnUse" color-interpolation-filters="sRGB">
<feFlood flood-opacity="0" result="BackgroundImageFix"/>
<feBlend mode="normal" in="SourceGraphic" in2="BackgroundImageFix" result="shape"/>
<feGaussianBlur stdDeviation="20.8928" result="effect1_foregroundBlur_228_116"/>
</filter>
<filter id="filter41_f_228_116" x="36.4214" y="-105.307" width="333.692" height="428.411" filterUnits="userSpaceOnUse" color-interpolation-filters="sRGB">
<feFlood flood-opacity="0" result="BackgroundImageFix"/>
<feBlend mode="normal" in="SourceGraphic" in2="BackgroundImageFix" result="shape"/>
<feGaussianBlur stdDeviation="20.8928" result="effect1_foregroundBlur_228_116"/>
</filter>
<filter id="filter42_f_228_116" x="110.217" y="-56.9381" width="509.103" height="371.052" filterUnits="userSpaceOnUse" color-interpolation-filters="sRGB">
<feFlood flood-opacity="0" result="BackgroundImageFix"/>
<feBlend mode="normal" in="SourceGraphic" in2="BackgroundImageFix" result="shape"/>
<feGaussianBlur stdDeviation="36.7249" result="effect1_foregroundBlur_228_116"/>
</filter>
<filter id="filter43_f_228_116" x="97.0136" y="-75.0684" width="509.103" height="371.052" filterUnits="userSpaceOnUse" color-interpolation-filters="sRGB">
<feFlood flood-opacity="0" result="BackgroundImageFix"/>
<feBlend mode="normal" in="SourceGraphic" in2="BackgroundImageFix" result="shape"/>
<feGaussianBlur stdDeviation="36.7249" result="effect1_foregroundBlur_228_116"/>
</filter>
<filter id="filter44_f_228_116" x="77.8144" y="-102.58" width="509.103" height="371.052" filterUnits="userSpaceOnUse" color-interpolation-filters="sRGB">
<feFlood flood-opacity="0" result="BackgroundImageFix"/>
<feBlend mode="normal" in="SourceGraphic" in2="BackgroundImageFix" result="shape"/>
<feGaussianBlur stdDeviation="36.7249" result="effect1_foregroundBlur_228_116"/>
</filter>
<filter id="filter45_f_228_116" x="167.146" y="-52.7777" width="509.103" height="371.052" filterUnits="userSpaceOnUse" color-interpolation-filters="sRGB">
<feFlood flood-opacity="0" result="BackgroundImageFix"/>
<feBlend mode="normal" in="SourceGraphic" in2="BackgroundImageFix" result="shape"/>
<feGaussianBlur stdDeviation="36.7249" result="effect1_foregroundBlur_228_116"/>
</filter>
<filter id="filter46_f_228_116" x="154.416" y="-24.672" width="445.774" height="307.724" filterUnits="userSpaceOnUse" color-interpolation-filters="sRGB">
<feFlood flood-opacity="0" result="BackgroundImageFix"/>
<feBlend mode="normal" in="SourceGraphic" in2="BackgroundImageFix" result="shape"/>
<feGaussianBlur stdDeviation="20.8928" result="effect1_foregroundBlur_228_116"/>
</filter>
<filter id="filter47_f_228_116" x="55.2363" y="6.56698" width="445.774" height="307.724" filterUnits="userSpaceOnUse" color-interpolation-filters="sRGB">
<feFlood flood-opacity="0" result="BackgroundImageFix"/>
<feBlend mode="normal" in="SourceGraphic" in2="BackgroundImageFix" result="shape"/>
<feGaussianBlur stdDeviation="20.8928" result="effect1_foregroundBlur_228_116"/>
</filter>
<filter id="filter48_f_228_116" x="110.217" y="-56.9383" width="509.103" height="371.052" filterUnits="userSpaceOnUse" color-interpolation-filters="sRGB">
<feFlood flood-opacity="0" result="BackgroundImageFix"/>
<feBlend mode="normal" in="SourceGraphic" in2="BackgroundImageFix" result="shape"/>
<feGaussianBlur stdDeviation="36.7249" result="effect1_foregroundBlur_228_116"/>
</filter>
<filter id="filter49_f_228_116" x="97.0136" y="-75.0687" width="509.103" height="371.052" filterUnits="userSpaceOnUse" color-interpolation-filters="sRGB">
<feFlood flood-opacity="0" result="BackgroundImageFix"/>
<feBlend mode="normal" in="SourceGraphic" in2="BackgroundImageFix" result="shape"/>
<feGaussianBlur stdDeviation="36.7249" result="effect1_foregroundBlur_228_116"/>
</filter>
<filter id="filter50_f_228_116" x="77.8144" y="-102.58" width="509.103" height="371.052" filterUnits="userSpaceOnUse" color-interpolation-filters="sRGB">
<feFlood flood-opacity="0" result="BackgroundImageFix"/>
<feBlend mode="normal" in="SourceGraphic" in2="BackgroundImageFix" result="shape"/>
<feGaussianBlur stdDeviation="36.7249" result="effect1_foregroundBlur_228_116"/>
</filter>
<filter id="filter51_f_228_116" x="167.146" y="-52.7779" width="509.103" height="371.052" filterUnits="userSpaceOnUse" color-interpolation-filters="sRGB">
<feFlood flood-opacity="0" result="BackgroundImageFix"/>
<feBlend mode="normal" in="SourceGraphic" in2="BackgroundImageFix" result="shape"/>
<feGaussianBlur stdDeviation="36.7249" result="effect1_foregroundBlur_228_116"/>
</filter>
<filter id="filter52_f_228_116" x="154.416" y="-24.6723" width="445.774" height="307.724" filterUnits="userSpaceOnUse" color-interpolation-filters="sRGB">
<feFlood flood-opacity="0" result="BackgroundImageFix"/>
<feBlend mode="normal" in="SourceGraphic" in2="BackgroundImageFix" result="shape"/>
<feGaussianBlur stdDeviation="20.8928" result="effect1_foregroundBlur_228_116"/>
</filter>
<filter id="filter53_f_228_116" x="55.2363" y="6.56674" width="445.774" height="307.724" filterUnits="userSpaceOnUse" color-interpolation-filters="sRGB">
<feFlood flood-opacity="0" result="BackgroundImageFix"/>
<feBlend mode="normal" in="SourceGraphic" in2="BackgroundImageFix" result="shape"/>
<feGaussianBlur stdDeviation="20.8928" result="effect1_foregroundBlur_228_116"/>
</filter>
<linearGradient id="paint0_linear_228_116" x1="396.308" y1="-11.3719" x2="243.515" y2="185.159" gradientUnits="userSpaceOnUse">
<stop stop-color="#1584EB"/>
<stop offset="0.557292" stop-color="#1584EB"/>
<stop offset="1" stop-color="#1572EB"/>
</linearGradient>
<linearGradient id="paint1_linear_228_116" x1="378.376" y1="-24.8426" x2="225.583" y2="171.688" gradientUnits="userSpaceOnUse">
<stop stop-color="#1572EB"/>
<stop offset="0.557292" stop-color="#007AFF"/>
<stop offset="1" stop-color="#1560EB"/>
</linearGradient>
<linearGradient id="paint2_linear_228_116" x1="351.962" y1="-45.5277" x2="199.169" y2="151.003" gradientUnits="userSpaceOnUse">
<stop stop-color="#007AFF" stop-opacity="0.15"/>
<stop offset="1" stop-color="#007AFF"/>
</linearGradient>
<linearGradient id="paint3_linear_228_116" x1="451.962" y1="-24.0619" x2="299.169" y2="172.469" gradientUnits="userSpaceOnUse">
<stop stop-color="#007AFF"/>
<stop offset="0.557292" stop-color="#007AFF"/>
<stop offset="1" stop-color="#007AFF"/>
</linearGradient>
<linearGradient id="paint4_linear_228_116" x1="408.47" y1="-14.4667" x2="255.677" y2="182.064" gradientUnits="userSpaceOnUse">
<stop stop-color="#007AFF"/>
<stop offset="1" stop-color="#007AFF"/>
</linearGradient>
<linearGradient id="paint5_linear_228_116" x1="322.781" y1="44.4411" x2="169.988" y2="240.972" gradientUnits="userSpaceOnUse">
<stop stop-color="#007AFF"/>
<stop offset="1" stop-color="#007AFF"/>
</linearGradient>
<linearGradient id="paint6_linear_228_116" x1="528.518" y1="4.28202" x2="324.88" y2="147.467" gradientUnits="userSpaceOnUse">
<stop stop-color="#007AFF"/>
<stop offset="0.557292" stop-color="#007AFF"/>
<stop offset="1" stop-color="#007AFF"/>
</linearGradient>
<linearGradient id="paint7_linear_228_116" x1="554.256" y1="23.0143" x2="350.619" y2="166.2" gradientUnits="userSpaceOnUse">
<stop stop-color="#007AFF"/>
<stop offset="1" stop-color="#007AFF"/>
</linearGradient>
<linearGradient id="paint8_linear_228_116" x1="455.076" y1="54.2533" x2="251.439" y2="197.439" gradientUnits="userSpaceOnUse">
<stop stop-color="#1560EB"/>
<stop offset="1" stop-color="#007AFF"/>
</linearGradient>
<linearGradient id="paint9_linear_228_116" x1="541.721" y1="22.4121" x2="338.084" y2="165.597" gradientUnits="userSpaceOnUse">
<stop stop-color="#1584EB"/>
<stop offset="0.557292" stop-color="#1560EB"/>
<stop offset="1" stop-color="#1572EB"/>
</linearGradient>
<linearGradient id="paint10_linear_228_116" x1="528.518" y1="4.28177" x2="324.88" y2="147.467" gradientUnits="userSpaceOnUse">
<stop stop-color="#1572EB"/>
<stop offset="0.557292" stop-color="#1584EB"/>
<stop offset="1" stop-color="#1572EB"/>
</linearGradient>
<linearGradient id="paint11_linear_228_116" x1="509.318" y1="-23.2299" x2="305.681" y2="119.955" gradientUnits="userSpaceOnUse">
<stop stop-color="#1584EB"/>
<stop offset="1" stop-color="#1560EB"/>
</linearGradient>
<linearGradient id="paint12_linear_228_116" x1="598.65" y1="26.5725" x2="395.013" y2="169.758" gradientUnits="userSpaceOnUse">
<stop stop-color="#1584EB"/>
<stop offset="0.557292" stop-color="#1560EB"/>
<stop offset="1" stop-color="#1572EB"/>
</linearGradient>
<linearGradient id="paint13_linear_228_116" x1="554.256" y1="23.0141" x2="350.619" y2="166.199" gradientUnits="userSpaceOnUse">
<stop stop-color="#1560EB"/>
<stop offset="1" stop-color="#1560EB"/>
</linearGradient>
<linearGradient id="paint14_linear_228_116" x1="455.076" y1="54.2531" x2="251.439" y2="197.438" gradientUnits="userSpaceOnUse">
<stop stop-color="#1572EB"/>
<stop offset="1" stop-color="#1560EB"/>
</linearGradient>
</defs>
</svg>
