<svg width="44" height="40" viewBox="0 0 44 40" fill="none" xmlns="http://www.w3.org/2000/svg">
<path d="M42.9135 4.17119C43.2843 4.35657 43.7351 4.20629 43.9205 3.83553C44.1059 3.46478 43.9556 3.01395 43.5849 2.82857L42.9135 4.17119ZM22.0777 15.3837L21.6042 15.966L22.0777 15.3837ZM4.65873 39.3509C4.93308 39.6617 5.40739 39.6911 5.71812 39.4168L10.7818 34.9459C11.0925 34.6716 11.122 34.1972 10.8476 33.8865C10.5733 33.5758 10.099 33.5463 9.78824 33.8207L5.28722 37.7948L1.3131 33.2937C1.03875 32.983 0.564443 32.9535 0.253711 33.2279C-0.0570181 33.5022 -0.0865082 33.9765 0.187847 34.2873L4.65873 39.3509ZM43.2492 3.49988L43.5849 2.82857C36.2637 -0.832011 27.2585 -0.700243 21.7909 1.85433C19.0618 3.12941 17.0336 5.10352 16.7755 7.68672C16.5181 10.2637 18.0611 13.0853 21.6042 15.966L22.0777 15.3837L22.5512 14.8013C19.1515 12.0372 18.087 9.65966 18.2692 7.83595C18.4508 6.01843 19.9094 4.39026 22.4263 3.21431C27.4507 0.866819 35.9742 0.701495 42.9135 4.17119L43.2492 3.49988ZM22.0777 15.3837L21.6042 15.966C24.1252 18.0156 25.9045 19.1081 27.0641 19.4598C27.6032 19.6233 28.2844 19.711 28.7863 19.2934C29.3217 18.8479 29.276 18.162 29.1721 17.7227C28.9484 16.7776 28.1528 15.5454 27.0888 14.3807C26.0019 13.1908 24.5495 11.9773 22.8915 11.0946C21.2348 10.2126 19.3338 9.64087 17.3713 9.79936C15.3895 9.95942 13.417 10.859 11.6389 12.7913C8.13111 16.6034 5.36513 24.4459 4.47225 38.8076L5.22135 38.8542L5.97046 38.9007C6.86 24.5927 9.60975 17.2134 12.7435 13.8077C14.2863 12.1312 15.9161 11.4229 17.4921 11.2956C19.0874 11.1668 20.6998 11.6283 22.186 12.4196C23.671 13.2102 24.9912 14.31 25.9805 15.3931C26.9929 16.5013 27.5772 17.5017 27.7113 18.0684C27.7862 18.3849 27.6638 18.2747 27.8262 18.1395C27.9551 18.0323 27.967 18.1651 27.4998 18.0234C26.6467 17.7646 25.0652 16.8453 22.5512 14.8013L22.0777 15.3837Z" fill="#94949E"/>
</svg>
