<svg width="44" height="40" viewBox="0 0 44 40" fill="none" xmlns="http://www.w3.org/2000/svg">
<path d="M1.08621 4.17119C0.71545 4.35657 0.264615 4.20629 0.0792376 3.83553C-0.10614 3.46478 0.0441383 3.01395 0.414894 2.82857L1.08621 4.17119ZM21.922 15.3837L22.3955 15.966L21.922 15.3837ZM39.341 39.3509C39.0667 39.6617 38.5924 39.6911 38.2816 39.4168L33.218 34.9459C32.9073 34.6716 32.8778 34.1972 33.1521 33.8865C33.4265 33.5758 33.9008 33.5463 34.2115 33.8207L38.7125 37.7948L42.6867 33.2937C42.961 32.983 43.4353 32.9535 43.746 33.2279C44.0568 33.5022 44.0863 33.9765 43.8119 34.2873L39.341 39.3509ZM0.75055 3.49988L0.414894 2.82857C7.73605 -0.832011 16.7412 -0.700243 22.2088 1.85433C24.9379 3.12941 26.9662 5.10352 27.2242 7.68672C27.4817 10.2637 25.9387 13.0853 22.3955 15.966L21.922 15.3837L21.4486 14.8013C24.8483 12.0372 25.9128 9.65966 25.7306 7.83595C25.549 6.01843 24.0904 4.39026 21.5734 3.21431C16.549 0.866819 8.0256 0.701495 1.08621 4.17119L0.75055 3.49988ZM21.922 15.3837L22.3955 15.966C19.8746 18.0156 18.0952 19.1081 16.9357 19.4598C16.3966 19.6233 15.7153 19.711 15.2134 19.2934C14.6781 18.8479 14.7237 18.162 14.8277 17.7227C15.0513 16.7776 15.847 15.5454 16.9109 14.3807C17.9978 13.1908 19.4503 11.9773 21.1083 11.0946C22.765 10.2126 24.6659 9.64087 26.6285 9.79936C28.6103 9.95942 30.5828 10.859 32.3608 12.7913C35.8686 16.6034 38.6346 24.4459 39.5275 38.8076L38.7784 38.8542L38.0293 38.9007C37.1398 24.5927 34.39 17.2134 31.2562 13.8077C29.7135 12.1312 28.0837 11.4229 26.5077 11.2956C24.9124 11.1668 23.3 11.6283 21.8137 12.4196C20.3287 13.2102 19.0086 14.31 18.0192 15.3931C17.0069 16.5013 16.4225 17.5017 16.2885 18.0684C16.2136 18.3849 16.3359 18.2747 16.1736 18.1395C16.0447 18.0323 16.0327 18.1651 16.5 18.0234C17.3531 17.7646 18.9346 16.8453 21.4486 14.8013L21.922 15.3837Z" fill="#94949E"/>
</svg>
